%TF.GenerationSoftware,KiCad,Pcbnew,5.1.10*%
%TF.CreationDate,2021-07-19T16:22:53-07:00*%
%TF.ProjectId,dogbone,646f6762-6f6e-4652-9e6b-696361645f70,rev?*%
%TF.SameCoordinates,Original*%
%TF.FileFunction,Legend,Top*%
%TF.FilePolarity,Positive*%
%FSLAX46Y46*%
G04 Gerber Fmt 4.6, Leading zero omitted, Abs format (unit mm)*
G04 Created by KiCad (PCBNEW 5.1.10) date 2021-07-19 16:22:53*
%MOMM*%
%LPD*%
G01*
G04 APERTURE LIST*
%ADD10C,0.150000*%
G04 APERTURE END LIST*
%TO.C,R3*%
D10*
X58342233Y-88564980D02*
X58008900Y-88088790D01*
X57770804Y-88564980D02*
X57770804Y-87564980D01*
X58151757Y-87564980D01*
X58246995Y-87612600D01*
X58294614Y-87660219D01*
X58342233Y-87755457D01*
X58342233Y-87898314D01*
X58294614Y-87993552D01*
X58246995Y-88041171D01*
X58151757Y-88088790D01*
X57770804Y-88088790D01*
X58675566Y-87564980D02*
X59294614Y-87564980D01*
X58961280Y-87945933D01*
X59104138Y-87945933D01*
X59199376Y-87993552D01*
X59246995Y-88041171D01*
X59294614Y-88136409D01*
X59294614Y-88374504D01*
X59246995Y-88469742D01*
X59199376Y-88517361D01*
X59104138Y-88564980D01*
X58818423Y-88564980D01*
X58723185Y-88517361D01*
X58675566Y-88469742D01*
%TO.C,R2*%
X52055733Y-94660980D02*
X51722400Y-94184790D01*
X51484304Y-94660980D02*
X51484304Y-93660980D01*
X51865257Y-93660980D01*
X51960495Y-93708600D01*
X52008114Y-93756219D01*
X52055733Y-93851457D01*
X52055733Y-93994314D01*
X52008114Y-94089552D01*
X51960495Y-94137171D01*
X51865257Y-94184790D01*
X51484304Y-94184790D01*
X52436685Y-93756219D02*
X52484304Y-93708600D01*
X52579542Y-93660980D01*
X52817638Y-93660980D01*
X52912876Y-93708600D01*
X52960495Y-93756219D01*
X53008114Y-93851457D01*
X53008114Y-93946695D01*
X52960495Y-94089552D01*
X52389066Y-94660980D01*
X53008114Y-94660980D01*
%TO.C,R1*%
X50063280Y-96131266D02*
X49587090Y-96464600D01*
X50063280Y-96702695D02*
X49063280Y-96702695D01*
X49063280Y-96321742D01*
X49110900Y-96226504D01*
X49158519Y-96178885D01*
X49253757Y-96131266D01*
X49396614Y-96131266D01*
X49491852Y-96178885D01*
X49539471Y-96226504D01*
X49587090Y-96321742D01*
X49587090Y-96702695D01*
X50063280Y-95178885D02*
X50063280Y-95750314D01*
X50063280Y-95464600D02*
X49063280Y-95464600D01*
X49206138Y-95559838D01*
X49301376Y-95655076D01*
X49348995Y-95750314D01*
%TO.C,BZ1*%
X55675447Y-83715171D02*
X55818304Y-83762790D01*
X55865923Y-83810409D01*
X55913542Y-83905647D01*
X55913542Y-84048504D01*
X55865923Y-84143742D01*
X55818304Y-84191361D01*
X55723066Y-84238980D01*
X55342114Y-84238980D01*
X55342114Y-83238980D01*
X55675447Y-83238980D01*
X55770685Y-83286600D01*
X55818304Y-83334219D01*
X55865923Y-83429457D01*
X55865923Y-83524695D01*
X55818304Y-83619933D01*
X55770685Y-83667552D01*
X55675447Y-83715171D01*
X55342114Y-83715171D01*
X56246876Y-83238980D02*
X56913542Y-83238980D01*
X56246876Y-84238980D01*
X56913542Y-84238980D01*
X57818304Y-84238980D02*
X57246876Y-84238980D01*
X57532590Y-84238980D02*
X57532590Y-83238980D01*
X57437352Y-83381838D01*
X57342114Y-83477076D01*
X57246876Y-83524695D01*
%TO.C,H3*%
X46101095Y-88590380D02*
X46101095Y-87590380D01*
X46101095Y-88066571D02*
X46672523Y-88066571D01*
X46672523Y-88590380D02*
X46672523Y-87590380D01*
X47053476Y-87590380D02*
X47672523Y-87590380D01*
X47339190Y-87971333D01*
X47482047Y-87971333D01*
X47577285Y-88018952D01*
X47624904Y-88066571D01*
X47672523Y-88161809D01*
X47672523Y-88399904D01*
X47624904Y-88495142D01*
X47577285Y-88542761D01*
X47482047Y-88590380D01*
X47196333Y-88590380D01*
X47101095Y-88542761D01*
X47053476Y-88495142D01*
%TO.C,H2*%
X65468595Y-95321380D02*
X65468595Y-94321380D01*
X65468595Y-94797571D02*
X66040023Y-94797571D01*
X66040023Y-95321380D02*
X66040023Y-94321380D01*
X66468595Y-94416619D02*
X66516214Y-94369000D01*
X66611452Y-94321380D01*
X66849547Y-94321380D01*
X66944785Y-94369000D01*
X66992404Y-94416619D01*
X67040023Y-94511857D01*
X67040023Y-94607095D01*
X66992404Y-94749952D01*
X66420976Y-95321380D01*
X67040023Y-95321380D01*
%TO.C,H1*%
X65341595Y-83383380D02*
X65341595Y-82383380D01*
X65341595Y-82859571D02*
X65913023Y-82859571D01*
X65913023Y-83383380D02*
X65913023Y-82383380D01*
X66913023Y-83383380D02*
X66341595Y-83383380D01*
X66627309Y-83383380D02*
X66627309Y-82383380D01*
X66532071Y-82526238D01*
X66436833Y-82621476D01*
X66341595Y-82669095D01*
%TD*%
M02*
