%TF.GenerationSoftware,KiCad,Pcbnew,(5.1.10)-1*%
%TF.CreationDate,2021-08-06T13:27:46-07:00*%
%TF.ProjectId,dogbone,646f6762-6f6e-4652-9e6b-696361645f70,rev?*%
%TF.SameCoordinates,Original*%
%TF.FileFunction,Paste,Bot*%
%TF.FilePolarity,Positive*%
%FSLAX46Y46*%
G04 Gerber Fmt 4.6, Leading zero omitted, Abs format (unit mm)*
G04 Created by KiCad (PCBNEW (5.1.10)-1) date 2021-08-06 13:27:46*
%MOMM*%
%LPD*%
G01*
G04 APERTURE LIST*
%ADD10R,0.600000X1.550000*%
%ADD11R,1.200000X1.800000*%
%ADD12R,0.725000X0.900000*%
G04 APERTURE END LIST*
D10*
%TO.C,J1*%
X54334400Y-98145600D03*
D11*
X59934400Y-101745600D03*
X52734400Y-101745600D03*
D10*
X55334400Y-98145600D03*
X56334400Y-98145600D03*
X57334400Y-98145600D03*
X58334400Y-98145600D03*
%TD*%
%TO.C,U1*%
G36*
G01*
X55169900Y-93037600D02*
X55169900Y-93337600D01*
G75*
G02*
X55019900Y-93487600I-150000J0D01*
G01*
X54219900Y-93487600D01*
G75*
G02*
X54069900Y-93337600I0J150000D01*
G01*
X54069900Y-93037600D01*
G75*
G02*
X54219900Y-92887600I150000J0D01*
G01*
X55019900Y-92887600D01*
G75*
G02*
X55169900Y-93037600I0J-150000D01*
G01*
G37*
G36*
G01*
X58169900Y-93037600D02*
X58169900Y-93337600D01*
G75*
G02*
X58019900Y-93487600I-150000J0D01*
G01*
X57219900Y-93487600D01*
G75*
G02*
X57069900Y-93337600I0J150000D01*
G01*
X57069900Y-93037600D01*
G75*
G02*
X57219900Y-92887600I150000J0D01*
G01*
X58019900Y-92887600D01*
G75*
G02*
X58169900Y-93037600I0J-150000D01*
G01*
G37*
G36*
G01*
X58169900Y-92087600D02*
X58169900Y-92387600D01*
G75*
G02*
X58019900Y-92537600I-150000J0D01*
G01*
X57219900Y-92537600D01*
G75*
G02*
X57069900Y-92387600I0J150000D01*
G01*
X57069900Y-92087600D01*
G75*
G02*
X57219900Y-91937600I150000J0D01*
G01*
X58019900Y-91937600D01*
G75*
G02*
X58169900Y-92087600I0J-150000D01*
G01*
G37*
G36*
G01*
X55169900Y-91137600D02*
X55169900Y-91437600D01*
G75*
G02*
X55019900Y-91587600I-150000J0D01*
G01*
X54219900Y-91587600D01*
G75*
G02*
X54069900Y-91437600I0J150000D01*
G01*
X54069900Y-91137600D01*
G75*
G02*
X54219900Y-90987600I150000J0D01*
G01*
X55019900Y-90987600D01*
G75*
G02*
X55169900Y-91137600I0J-150000D01*
G01*
G37*
G36*
G01*
X58169900Y-91137600D02*
X58169900Y-91437600D01*
G75*
G02*
X58019900Y-91587600I-150000J0D01*
G01*
X57219900Y-91587600D01*
G75*
G02*
X57069900Y-91437600I0J150000D01*
G01*
X57069900Y-91137600D01*
G75*
G02*
X57219900Y-90987600I150000J0D01*
G01*
X58019900Y-90987600D01*
G75*
G02*
X58169900Y-91137600I0J-150000D01*
G01*
G37*
%TD*%
D12*
%TO.C,R4*%
X56899400Y-89827100D03*
X55524400Y-89827100D03*
%TD*%
%TO.C,C1*%
X56857900Y-88049100D03*
X55482900Y-88049100D03*
%TD*%
M02*
