%TF.GenerationSoftware,KiCad,Pcbnew,5.1.10*%
%TF.CreationDate,2021-07-14T12:23:08-07:00*%
%TF.ProjectId,dogbone,646f6762-6f6e-4652-9e6b-696361645f70,rev?*%
%TF.SameCoordinates,Original*%
%TF.FileFunction,Copper,L1,Top*%
%TF.FilePolarity,Positive*%
%FSLAX46Y46*%
G04 Gerber Fmt 4.6, Leading zero omitted, Abs format (unit mm)*
G04 Created by KiCad (PCBNEW 5.1.10) date 2021-07-14 12:23:08*
%MOMM*%
%LPD*%
G01*
G04 APERTURE LIST*
%TA.AperFunction,SMDPad,CuDef*%
%ADD10R,0.725000X0.900000*%
%TD*%
%TA.AperFunction,SMDPad,CuDef*%
%ADD11R,0.900000X0.725000*%
%TD*%
%TA.AperFunction,SMDPad,CuDef*%
%ADD12C,2.000000*%
%TD*%
%TA.AperFunction,SMDPad,CuDef*%
%ADD13R,2.000000X2.000000*%
%TD*%
%TA.AperFunction,ComponentPad*%
%ADD14C,2.500000*%
%TD*%
%TA.AperFunction,ViaPad*%
%ADD15C,0.800000*%
%TD*%
%TA.AperFunction,Conductor*%
%ADD16C,0.250000*%
%TD*%
G04 APERTURE END LIST*
D10*
%TO.P,R3,2*%
%TO.N,UNAMP*%
X55584500Y-88455500D03*
%TO.P,R3,1*%
%TO.N,VGND*%
X56959500Y-88455500D03*
%TD*%
%TO.P,R2,2*%
%TO.N,GND*%
X55499000Y-95948500D03*
%TO.P,R2,1*%
%TO.N,VGND*%
X54124000Y-95948500D03*
%TD*%
D11*
%TO.P,R1,2*%
%TO.N,VGND*%
X52324000Y-96732500D03*
%TO.P,R1,1*%
%TO.N,+3V3*%
X52324000Y-98107500D03*
%TD*%
D12*
%TO.P,BZ1,2*%
%TO.N,VGND*%
X57618000Y-86233000D03*
D13*
%TO.P,BZ1,1*%
%TO.N,UNAMP*%
X55118000Y-86233000D03*
%TD*%
D14*
%TO.P,H3,1*%
%TO.N,N/C*%
X46577000Y-90623000D03*
%TD*%
%TO.P,H2,1*%
%TO.N,N/C*%
X63520000Y-94760000D03*
%TD*%
%TO.P,H1,1*%
%TO.N,N/C*%
X63520000Y-84740000D03*
%TD*%
D15*
%TO.N,VGND*%
X57150000Y-94615000D03*
%TO.N,UNAMP*%
X54737000Y-88582500D03*
%TO.N,+3V3*%
X53721000Y-98171000D03*
%TD*%
D16*
%TO.N,VGND*%
X53108000Y-95948500D02*
X52324000Y-96732500D01*
X54124000Y-95948500D02*
X53108000Y-95948500D01*
X54124000Y-95248500D02*
X54757500Y-94615000D01*
X54124000Y-95948500D02*
X54124000Y-95248500D01*
X54757500Y-94615000D02*
X57150000Y-94615000D01*
X57150000Y-94615000D02*
X57150000Y-94615000D01*
X57618000Y-87797000D02*
X56959500Y-88455500D01*
X57618000Y-86233000D02*
X57618000Y-87797000D01*
X56959500Y-94424500D02*
X57150000Y-94615000D01*
X56959500Y-88455500D02*
X56959500Y-94424500D01*
%TO.N,UNAMP*%
X55118000Y-87989000D02*
X55584500Y-88455500D01*
X55118000Y-86233000D02*
X55118000Y-87989000D01*
X55584500Y-88455500D02*
X54737000Y-88582500D01*
X54737000Y-88582500D02*
X54864000Y-88455500D01*
%TO.N,+3V3*%
X52387500Y-98171000D02*
X52324000Y-98107500D01*
X53721000Y-98171000D02*
X52387500Y-98171000D01*
%TD*%
M02*
