%TF.GenerationSoftware,KiCad,Pcbnew,5.1.10*%
%TF.CreationDate,2021-07-14T12:23:08-07:00*%
%TF.ProjectId,dogbone,646f6762-6f6e-4652-9e6b-696361645f70,rev?*%
%TF.SameCoordinates,Original*%
%TF.FileFunction,Legend,Bot*%
%TF.FilePolarity,Positive*%
%FSLAX46Y46*%
G04 Gerber Fmt 4.6, Leading zero omitted, Abs format (unit mm)*
G04 Created by KiCad (PCBNEW 5.1.10) date 2021-07-14 12:23:08*
%MOMM*%
%LPD*%
G01*
G04 APERTURE LIST*
%ADD10C,0.150000*%
G04 APERTURE END LIST*
%TO.C,U1*%
D10*
X60642404Y-91527380D02*
X60642404Y-92336904D01*
X60594785Y-92432142D01*
X60547166Y-92479761D01*
X60451928Y-92527380D01*
X60261452Y-92527380D01*
X60166214Y-92479761D01*
X60118595Y-92432142D01*
X60070976Y-92336904D01*
X60070976Y-91527380D01*
X59070976Y-92527380D02*
X59642404Y-92527380D01*
X59356690Y-92527380D02*
X59356690Y-91527380D01*
X59451928Y-91670238D01*
X59547166Y-91765476D01*
X59642404Y-91813095D01*
%TO.C,R4*%
X53570166Y-88844380D02*
X53903500Y-88368190D01*
X54141595Y-88844380D02*
X54141595Y-87844380D01*
X53760642Y-87844380D01*
X53665404Y-87892000D01*
X53617785Y-87939619D01*
X53570166Y-88034857D01*
X53570166Y-88177714D01*
X53617785Y-88272952D01*
X53665404Y-88320571D01*
X53760642Y-88368190D01*
X54141595Y-88368190D01*
X52713023Y-88177714D02*
X52713023Y-88844380D01*
X52951119Y-87796761D02*
X53189214Y-88511047D01*
X52570166Y-88511047D01*
%TO.C,J1*%
X56530833Y-99972880D02*
X56530833Y-100687166D01*
X56578452Y-100830023D01*
X56673690Y-100925261D01*
X56816547Y-100972880D01*
X56911785Y-100972880D01*
X55530833Y-100972880D02*
X56102261Y-100972880D01*
X55816547Y-100972880D02*
X55816547Y-99972880D01*
X55911785Y-100115738D01*
X56007023Y-100210976D01*
X56102261Y-100258595D01*
%TO.C,C1*%
X58777166Y-90400142D02*
X58824785Y-90447761D01*
X58967642Y-90495380D01*
X59062880Y-90495380D01*
X59205738Y-90447761D01*
X59300976Y-90352523D01*
X59348595Y-90257285D01*
X59396214Y-90066809D01*
X59396214Y-89923952D01*
X59348595Y-89733476D01*
X59300976Y-89638238D01*
X59205738Y-89543000D01*
X59062880Y-89495380D01*
X58967642Y-89495380D01*
X58824785Y-89543000D01*
X58777166Y-89590619D01*
X57824785Y-90495380D02*
X58396214Y-90495380D01*
X58110500Y-90495380D02*
X58110500Y-89495380D01*
X58205738Y-89638238D01*
X58300976Y-89733476D01*
X58396214Y-89781095D01*
%TD*%
M02*
