%TF.GenerationSoftware,KiCad,Pcbnew,5.1.10*%
%TF.CreationDate,2021-07-14T12:23:08-07:00*%
%TF.ProjectId,dogbone,646f6762-6f6e-4652-9e6b-696361645f70,rev?*%
%TF.SameCoordinates,Original*%
%TF.FileFunction,Legend,Top*%
%TF.FilePolarity,Positive*%
%FSLAX46Y46*%
G04 Gerber Fmt 4.6, Leading zero omitted, Abs format (unit mm)*
G04 Created by KiCad (PCBNEW 5.1.10) date 2021-07-14 12:23:08*
%MOMM*%
%LPD*%
G01*
G04 APERTURE LIST*
%ADD10C,0.150000*%
G04 APERTURE END LIST*
%TO.C,R3*%
D10*
X58443833Y-88971380D02*
X58110500Y-88495190D01*
X57872404Y-88971380D02*
X57872404Y-87971380D01*
X58253357Y-87971380D01*
X58348595Y-88019000D01*
X58396214Y-88066619D01*
X58443833Y-88161857D01*
X58443833Y-88304714D01*
X58396214Y-88399952D01*
X58348595Y-88447571D01*
X58253357Y-88495190D01*
X57872404Y-88495190D01*
X58777166Y-87971380D02*
X59396214Y-87971380D01*
X59062880Y-88352333D01*
X59205738Y-88352333D01*
X59300976Y-88399952D01*
X59348595Y-88447571D01*
X59396214Y-88542809D01*
X59396214Y-88780904D01*
X59348595Y-88876142D01*
X59300976Y-88923761D01*
X59205738Y-88971380D01*
X58920023Y-88971380D01*
X58824785Y-88923761D01*
X58777166Y-88876142D01*
%TO.C,R2*%
X52157333Y-95067380D02*
X51824000Y-94591190D01*
X51585904Y-95067380D02*
X51585904Y-94067380D01*
X51966857Y-94067380D01*
X52062095Y-94115000D01*
X52109714Y-94162619D01*
X52157333Y-94257857D01*
X52157333Y-94400714D01*
X52109714Y-94495952D01*
X52062095Y-94543571D01*
X51966857Y-94591190D01*
X51585904Y-94591190D01*
X52538285Y-94162619D02*
X52585904Y-94115000D01*
X52681142Y-94067380D01*
X52919238Y-94067380D01*
X53014476Y-94115000D01*
X53062095Y-94162619D01*
X53109714Y-94257857D01*
X53109714Y-94353095D01*
X53062095Y-94495952D01*
X52490666Y-95067380D01*
X53109714Y-95067380D01*
%TO.C,R1*%
X50736380Y-97004166D02*
X50260190Y-97337500D01*
X50736380Y-97575595D02*
X49736380Y-97575595D01*
X49736380Y-97194642D01*
X49784000Y-97099404D01*
X49831619Y-97051785D01*
X49926857Y-97004166D01*
X50069714Y-97004166D01*
X50164952Y-97051785D01*
X50212571Y-97099404D01*
X50260190Y-97194642D01*
X50260190Y-97575595D01*
X50736380Y-96051785D02*
X50736380Y-96623214D01*
X50736380Y-96337500D02*
X49736380Y-96337500D01*
X49879238Y-96432738D01*
X49974476Y-96527976D01*
X50022095Y-96623214D01*
%TO.C,BZ1*%
X55777047Y-84121571D02*
X55919904Y-84169190D01*
X55967523Y-84216809D01*
X56015142Y-84312047D01*
X56015142Y-84454904D01*
X55967523Y-84550142D01*
X55919904Y-84597761D01*
X55824666Y-84645380D01*
X55443714Y-84645380D01*
X55443714Y-83645380D01*
X55777047Y-83645380D01*
X55872285Y-83693000D01*
X55919904Y-83740619D01*
X55967523Y-83835857D01*
X55967523Y-83931095D01*
X55919904Y-84026333D01*
X55872285Y-84073952D01*
X55777047Y-84121571D01*
X55443714Y-84121571D01*
X56348476Y-83645380D02*
X57015142Y-83645380D01*
X56348476Y-84645380D01*
X57015142Y-84645380D01*
X57919904Y-84645380D02*
X57348476Y-84645380D01*
X57634190Y-84645380D02*
X57634190Y-83645380D01*
X57538952Y-83788238D01*
X57443714Y-83883476D01*
X57348476Y-83931095D01*
%TO.C,H3*%
X46101095Y-88590380D02*
X46101095Y-87590380D01*
X46101095Y-88066571D02*
X46672523Y-88066571D01*
X46672523Y-88590380D02*
X46672523Y-87590380D01*
X47053476Y-87590380D02*
X47672523Y-87590380D01*
X47339190Y-87971333D01*
X47482047Y-87971333D01*
X47577285Y-88018952D01*
X47624904Y-88066571D01*
X47672523Y-88161809D01*
X47672523Y-88399904D01*
X47624904Y-88495142D01*
X47577285Y-88542761D01*
X47482047Y-88590380D01*
X47196333Y-88590380D01*
X47101095Y-88542761D01*
X47053476Y-88495142D01*
%TO.C,H2*%
X65468595Y-95321380D02*
X65468595Y-94321380D01*
X65468595Y-94797571D02*
X66040023Y-94797571D01*
X66040023Y-95321380D02*
X66040023Y-94321380D01*
X66468595Y-94416619D02*
X66516214Y-94369000D01*
X66611452Y-94321380D01*
X66849547Y-94321380D01*
X66944785Y-94369000D01*
X66992404Y-94416619D01*
X67040023Y-94511857D01*
X67040023Y-94607095D01*
X66992404Y-94749952D01*
X66420976Y-95321380D01*
X67040023Y-95321380D01*
%TO.C,H1*%
X65341595Y-83383380D02*
X65341595Y-82383380D01*
X65341595Y-82859571D02*
X65913023Y-82859571D01*
X65913023Y-83383380D02*
X65913023Y-82383380D01*
X66913023Y-83383380D02*
X66341595Y-83383380D01*
X66627309Y-83383380D02*
X66627309Y-82383380D01*
X66532071Y-82526238D01*
X66436833Y-82621476D01*
X66341595Y-82669095D01*
%TD*%
M02*
