%TF.GenerationSoftware,KiCad,Pcbnew,(5.1.10)-1*%
%TF.CreationDate,2021-08-06T13:27:46-07:00*%
%TF.ProjectId,dogbone,646f6762-6f6e-4652-9e6b-696361645f70,rev?*%
%TF.SameCoordinates,Original*%
%TF.FileFunction,Copper,L2,Bot*%
%TF.FilePolarity,Positive*%
%FSLAX46Y46*%
G04 Gerber Fmt 4.6, Leading zero omitted, Abs format (unit mm)*
G04 Created by KiCad (PCBNEW (5.1.10)-1) date 2021-08-06 13:27:46*
%MOMM*%
%LPD*%
G01*
G04 APERTURE LIST*
%TA.AperFunction,SMDPad,CuDef*%
%ADD10R,0.600000X1.550000*%
%TD*%
%TA.AperFunction,SMDPad,CuDef*%
%ADD11R,1.200000X1.800000*%
%TD*%
%TA.AperFunction,SMDPad,CuDef*%
%ADD12R,0.725000X0.900000*%
%TD*%
%TA.AperFunction,ComponentPad*%
%ADD13C,2.500000*%
%TD*%
%TA.AperFunction,ViaPad*%
%ADD14C,0.800000*%
%TD*%
%TA.AperFunction,Conductor*%
%ADD15C,0.250000*%
%TD*%
G04 APERTURE END LIST*
D10*
%TO.P,J1,5*%
%TO.N,Net-(J1-Pad5)*%
X54334400Y-98145600D03*
D11*
%TO.P,J1,6*%
%TO.N,Net-(J1-Pad6)*%
X59934400Y-101745600D03*
X52734400Y-101745600D03*
D10*
%TO.P,J1,4*%
%TO.N,+3V3*%
X55334400Y-98145600D03*
%TO.P,J1,3*%
%TO.N,UNAMP*%
X56334400Y-98145600D03*
%TO.P,J1,2*%
%TO.N,AMP*%
X57334400Y-98145600D03*
%TO.P,J1,1*%
%TO.N,GND*%
X58334400Y-98145600D03*
%TD*%
%TO.P,U1,4*%
%TO.N,UNAMP*%
%TA.AperFunction,SMDPad,CuDef*%
G36*
G01*
X55169900Y-93037600D02*
X55169900Y-93337600D01*
G75*
G02*
X55019900Y-93487600I-150000J0D01*
G01*
X54219900Y-93487600D01*
G75*
G02*
X54069900Y-93337600I0J150000D01*
G01*
X54069900Y-93037600D01*
G75*
G02*
X54219900Y-92887600I150000J0D01*
G01*
X55019900Y-92887600D01*
G75*
G02*
X55169900Y-93037600I0J-150000D01*
G01*
G37*
%TD.AperFunction*%
%TO.P,U1,3*%
%TO.N,VGND*%
%TA.AperFunction,SMDPad,CuDef*%
G36*
G01*
X58169900Y-93037600D02*
X58169900Y-93337600D01*
G75*
G02*
X58019900Y-93487600I-150000J0D01*
G01*
X57219900Y-93487600D01*
G75*
G02*
X57069900Y-93337600I0J150000D01*
G01*
X57069900Y-93037600D01*
G75*
G02*
X57219900Y-92887600I150000J0D01*
G01*
X58019900Y-92887600D01*
G75*
G02*
X58169900Y-93037600I0J-150000D01*
G01*
G37*
%TD.AperFunction*%
%TO.P,U1,2*%
%TO.N,GND*%
%TA.AperFunction,SMDPad,CuDef*%
G36*
G01*
X58169900Y-92087600D02*
X58169900Y-92387600D01*
G75*
G02*
X58019900Y-92537600I-150000J0D01*
G01*
X57219900Y-92537600D01*
G75*
G02*
X57069900Y-92387600I0J150000D01*
G01*
X57069900Y-92087600D01*
G75*
G02*
X57219900Y-91937600I150000J0D01*
G01*
X58019900Y-91937600D01*
G75*
G02*
X58169900Y-92087600I0J-150000D01*
G01*
G37*
%TD.AperFunction*%
%TO.P,U1,5*%
%TO.N,+3V3*%
%TA.AperFunction,SMDPad,CuDef*%
G36*
G01*
X55169900Y-91137600D02*
X55169900Y-91437600D01*
G75*
G02*
X55019900Y-91587600I-150000J0D01*
G01*
X54219900Y-91587600D01*
G75*
G02*
X54069900Y-91437600I0J150000D01*
G01*
X54069900Y-91137600D01*
G75*
G02*
X54219900Y-90987600I150000J0D01*
G01*
X55019900Y-90987600D01*
G75*
G02*
X55169900Y-91137600I0J-150000D01*
G01*
G37*
%TD.AperFunction*%
%TO.P,U1,1*%
%TO.N,AMP*%
%TA.AperFunction,SMDPad,CuDef*%
G36*
G01*
X58169900Y-91137600D02*
X58169900Y-91437600D01*
G75*
G02*
X58019900Y-91587600I-150000J0D01*
G01*
X57219900Y-91587600D01*
G75*
G02*
X57069900Y-91437600I0J150000D01*
G01*
X57069900Y-91137600D01*
G75*
G02*
X57219900Y-90987600I150000J0D01*
G01*
X58019900Y-90987600D01*
G75*
G02*
X58169900Y-91137600I0J-150000D01*
G01*
G37*
%TD.AperFunction*%
%TD*%
D12*
%TO.P,R4,2*%
%TO.N,AMP*%
X56899400Y-89827100D03*
%TO.P,R4,1*%
%TO.N,UNAMP*%
X55524400Y-89827100D03*
%TD*%
%TO.P,C1,2*%
%TO.N,AMP*%
X56857900Y-88049100D03*
%TO.P,C1,1*%
%TO.N,UNAMP*%
X55482900Y-88049100D03*
%TD*%
D13*
%TO.P,H3,1*%
%TO.N,N/C*%
X46577000Y-90623000D03*
%TD*%
%TO.P,H2,1*%
%TO.N,N/C*%
X63520000Y-94760000D03*
%TD*%
%TO.P,H1,1*%
%TO.N,N/C*%
X63520000Y-84740000D03*
%TD*%
D14*
%TO.N,VGND*%
X57048400Y-94208600D03*
%TO.N,UNAMP*%
X54635400Y-88176100D03*
%TO.N,+3V3*%
X53111400Y-97129600D03*
%TO.N,GND*%
X58494910Y-95149690D03*
%TD*%
D15*
%TO.N,VGND*%
X57048400Y-93759100D02*
X57619900Y-93187600D01*
X57048400Y-94208600D02*
X57048400Y-93759100D01*
%TO.N,UNAMP*%
X55482900Y-89785600D02*
X55524400Y-89827100D01*
X55482900Y-88049100D02*
X55482900Y-89785600D01*
X55524400Y-92283100D02*
X54619900Y-93187600D01*
X55524400Y-89827100D02*
X55524400Y-92283100D01*
X55635900Y-94203600D02*
X54619900Y-93187600D01*
X54635400Y-88938100D02*
X55524400Y-89827100D01*
X54635400Y-88176100D02*
X54635400Y-88938100D01*
X56334400Y-97120600D02*
X56334400Y-98145600D01*
X55635900Y-96422100D02*
X56334400Y-97120600D01*
X55635900Y-94203600D02*
X55635900Y-96422100D01*
%TO.N,AMP*%
X56857900Y-89785600D02*
X56899400Y-89827100D01*
X56857900Y-88049100D02*
X56857900Y-89785600D01*
X56899400Y-90567100D02*
X57619900Y-91287600D01*
X56899400Y-89827100D02*
X56899400Y-90567100D01*
X56323399Y-94556601D02*
X57334400Y-95567602D01*
X56323399Y-92312333D02*
X56323399Y-94556601D01*
X57348132Y-91287600D02*
X56323399Y-92312333D01*
X57334400Y-95567602D02*
X57334400Y-98145600D01*
X57619900Y-91287600D02*
X57348132Y-91287600D01*
%TO.N,+3V3*%
X53619400Y-92288100D02*
X54619900Y-91287600D01*
X55334400Y-97120600D02*
X55334400Y-98145600D01*
X53619400Y-92288100D02*
X53619400Y-95405600D01*
X54298398Y-96521600D02*
X53690398Y-97129600D01*
X54735400Y-96521600D02*
X54298398Y-96521600D01*
X53619400Y-95405600D02*
X54735400Y-96521600D01*
X54735400Y-96521600D02*
X55334400Y-97120600D01*
X53690398Y-97129600D02*
X53111400Y-97129600D01*
X53111400Y-97129600D02*
X53111400Y-97129600D01*
%TO.N,GND*%
X58169900Y-92237600D02*
X57619900Y-92237600D01*
X58494910Y-92562610D02*
X58169900Y-92237600D01*
X58494910Y-97985090D02*
X58334400Y-98145600D01*
X58494910Y-92562610D02*
X58494910Y-95149690D01*
X58494910Y-95149690D02*
X58494910Y-97985090D01*
%TD*%
M02*
