%TF.GenerationSoftware,KiCad,Pcbnew,5.1.10*%
%TF.CreationDate,2021-07-19T16:22:53-07:00*%
%TF.ProjectId,dogbone,646f6762-6f6e-4652-9e6b-696361645f70,rev?*%
%TF.SameCoordinates,Original*%
%TF.FileFunction,Copper,L1,Top*%
%TF.FilePolarity,Positive*%
%FSLAX46Y46*%
G04 Gerber Fmt 4.6, Leading zero omitted, Abs format (unit mm)*
G04 Created by KiCad (PCBNEW 5.1.10) date 2021-07-19 16:22:53*
%MOMM*%
%LPD*%
G01*
G04 APERTURE LIST*
%TA.AperFunction,SMDPad,CuDef*%
%ADD10R,0.725000X0.900000*%
%TD*%
%TA.AperFunction,SMDPad,CuDef*%
%ADD11R,0.900000X0.725000*%
%TD*%
%TA.AperFunction,SMDPad,CuDef*%
%ADD12C,2.000000*%
%TD*%
%TA.AperFunction,SMDPad,CuDef*%
%ADD13R,2.000000X2.000000*%
%TD*%
%TA.AperFunction,ComponentPad*%
%ADD14C,2.500000*%
%TD*%
%TA.AperFunction,ViaPad*%
%ADD15C,0.800000*%
%TD*%
%TA.AperFunction,Conductor*%
%ADD16C,0.250000*%
%TD*%
G04 APERTURE END LIST*
D10*
%TO.P,R3,2*%
%TO.N,UNAMP*%
X55482900Y-88049100D03*
%TO.P,R3,1*%
%TO.N,VGND*%
X56857900Y-88049100D03*
%TD*%
%TO.P,R2,2*%
%TO.N,GND*%
X55397400Y-95542100D03*
%TO.P,R2,1*%
%TO.N,VGND*%
X54022400Y-95542100D03*
%TD*%
D11*
%TO.P,R1,2*%
%TO.N,VGND*%
X51650900Y-95859600D03*
%TO.P,R1,1*%
%TO.N,+3V3*%
X51650900Y-97234600D03*
%TD*%
D12*
%TO.P,BZ1,2*%
%TO.N,VGND*%
X57516400Y-85826600D03*
D13*
%TO.P,BZ1,1*%
%TO.N,UNAMP*%
X55016400Y-85826600D03*
%TD*%
D14*
%TO.P,H3,1*%
%TO.N,N/C*%
X46577000Y-90623000D03*
%TD*%
%TO.P,H2,1*%
%TO.N,N/C*%
X63520000Y-94760000D03*
%TD*%
%TO.P,H1,1*%
%TO.N,N/C*%
X63520000Y-84740000D03*
%TD*%
D15*
%TO.N,VGND*%
X57048400Y-94208600D03*
%TO.N,UNAMP*%
X54635400Y-88176100D03*
%TO.N,+3V3*%
X53111400Y-97129600D03*
%TD*%
D16*
%TO.N,VGND*%
X54022400Y-94842100D02*
X54655900Y-94208600D01*
X54022400Y-95542100D02*
X54022400Y-94842100D01*
X54655900Y-94208600D02*
X57048400Y-94208600D01*
X57048400Y-94208600D02*
X57048400Y-94208600D01*
X57516400Y-87390600D02*
X56857900Y-88049100D01*
X57516400Y-85826600D02*
X57516400Y-87390600D01*
X56857900Y-94018100D02*
X57048400Y-94208600D01*
X56857900Y-88049100D02*
X56857900Y-94018100D01*
X51968400Y-95542100D02*
X51650900Y-95859600D01*
X54022400Y-95542100D02*
X51968400Y-95542100D01*
%TO.N,UNAMP*%
X55016400Y-87582600D02*
X55482900Y-88049100D01*
X55016400Y-85826600D02*
X55016400Y-87582600D01*
X55482900Y-88049100D02*
X54635400Y-88176100D01*
X54635400Y-88176100D02*
X54762400Y-88049100D01*
%TO.N,+3V3*%
X51755900Y-97129600D02*
X51650900Y-97234600D01*
X53111400Y-97129600D02*
X51755900Y-97129600D01*
%TD*%
M02*
