%TF.GenerationSoftware,KiCad,Pcbnew,5.1.10*%
%TF.CreationDate,2021-05-24T18:10:12-07:00*%
%TF.ProjectId,exocam_charge_amp,65786f63-616d-45f6-9368-617267655f61,rev?*%
%TF.SameCoordinates,Original*%
%TF.FileFunction,Copper,L1,Top*%
%TF.FilePolarity,Positive*%
%FSLAX46Y46*%
G04 Gerber Fmt 4.6, Leading zero omitted, Abs format (unit mm)*
G04 Created by KiCad (PCBNEW 5.1.10) date 2021-05-24 18:10:12*
%MOMM*%
%LPD*%
G01*
G04 APERTURE LIST*
%TA.AperFunction,SMDPad,CuDef*%
%ADD10R,0.725000X0.900000*%
%TD*%
%TA.AperFunction,SMDPad,CuDef*%
%ADD11R,0.900000X0.725000*%
%TD*%
%TA.AperFunction,ComponentPad*%
%ADD12C,1.000000*%
%TD*%
%TA.AperFunction,ComponentPad*%
%ADD13R,1.000000X1.000000*%
%TD*%
%TA.AperFunction,ViaPad*%
%ADD14C,0.800000*%
%TD*%
%TA.AperFunction,Conductor*%
%ADD15C,0.250000*%
%TD*%
G04 APERTURE END LIST*
%TO.P,U1,4*%
%TO.N,Net-(BZ1-Pad1)*%
%TA.AperFunction,SMDPad,CuDef*%
G36*
G01*
X67650000Y-60470000D02*
X67650000Y-60170000D01*
G75*
G02*
X67800000Y-60020000I150000J0D01*
G01*
X68600000Y-60020000D01*
G75*
G02*
X68750000Y-60170000I0J-150000D01*
G01*
X68750000Y-60470000D01*
G75*
G02*
X68600000Y-60620000I-150000J0D01*
G01*
X67800000Y-60620000D01*
G75*
G02*
X67650000Y-60470000I0J150000D01*
G01*
G37*
%TD.AperFunction*%
%TO.P,U1,3*%
%TO.N,Net-(BZ1-Pad2)*%
%TA.AperFunction,SMDPad,CuDef*%
G36*
G01*
X64650000Y-60470000D02*
X64650000Y-60170000D01*
G75*
G02*
X64800000Y-60020000I150000J0D01*
G01*
X65600000Y-60020000D01*
G75*
G02*
X65750000Y-60170000I0J-150000D01*
G01*
X65750000Y-60470000D01*
G75*
G02*
X65600000Y-60620000I-150000J0D01*
G01*
X64800000Y-60620000D01*
G75*
G02*
X64650000Y-60470000I0J150000D01*
G01*
G37*
%TD.AperFunction*%
%TO.P,U1,2*%
%TO.N,GND*%
%TA.AperFunction,SMDPad,CuDef*%
G36*
G01*
X64650000Y-59520000D02*
X64650000Y-59220000D01*
G75*
G02*
X64800000Y-59070000I150000J0D01*
G01*
X65600000Y-59070000D01*
G75*
G02*
X65750000Y-59220000I0J-150000D01*
G01*
X65750000Y-59520000D01*
G75*
G02*
X65600000Y-59670000I-150000J0D01*
G01*
X64800000Y-59670000D01*
G75*
G02*
X64650000Y-59520000I0J150000D01*
G01*
G37*
%TD.AperFunction*%
%TO.P,U1,5*%
%TO.N,+5V*%
%TA.AperFunction,SMDPad,CuDef*%
G36*
G01*
X67650000Y-58570000D02*
X67650000Y-58270000D01*
G75*
G02*
X67800000Y-58120000I150000J0D01*
G01*
X68600000Y-58120000D01*
G75*
G02*
X68750000Y-58270000I0J-150000D01*
G01*
X68750000Y-58570000D01*
G75*
G02*
X68600000Y-58720000I-150000J0D01*
G01*
X67800000Y-58720000D01*
G75*
G02*
X67650000Y-58570000I0J150000D01*
G01*
G37*
%TD.AperFunction*%
%TO.P,U1,1*%
%TO.N,Net-(C1-Pad2)*%
%TA.AperFunction,SMDPad,CuDef*%
G36*
G01*
X64650000Y-58570000D02*
X64650000Y-58270000D01*
G75*
G02*
X64800000Y-58120000I150000J0D01*
G01*
X65600000Y-58120000D01*
G75*
G02*
X65750000Y-58270000I0J-150000D01*
G01*
X65750000Y-58570000D01*
G75*
G02*
X65600000Y-58720000I-150000J0D01*
G01*
X64800000Y-58720000D01*
G75*
G02*
X64650000Y-58570000I0J150000D01*
G01*
G37*
%TD.AperFunction*%
%TD*%
D10*
%TO.P,R4,2*%
%TO.N,Net-(BZ1-Pad1)*%
X67310000Y-63500000D03*
%TO.P,R4,1*%
%TO.N,Net-(BZ1-Pad2)*%
X65935000Y-63500000D03*
%TD*%
%TO.P,R3,2*%
%TO.N,Net-(C1-Pad2)*%
X66040000Y-54180000D03*
%TO.P,R3,1*%
%TO.N,Net-(BZ1-Pad1)*%
X67415000Y-54180000D03*
%TD*%
%TO.P,R2,2*%
%TO.N,GND*%
X62230000Y-58420000D03*
%TO.P,R2,1*%
%TO.N,Net-(BZ1-Pad2)*%
X60855000Y-58420000D03*
%TD*%
D11*
%TO.P,R1,2*%
%TO.N,Net-(BZ1-Pad2)*%
X63500000Y-62125000D03*
%TO.P,R1,1*%
%TO.N,+5V*%
X63500000Y-63500000D03*
%TD*%
D12*
%TO.P,J1,2*%
%TO.N,+5V*%
X58420000Y-63500000D03*
D13*
%TO.P,J1,1*%
%TO.N,GND*%
X58420000Y-60960000D03*
%TD*%
D10*
%TO.P,C1,2*%
%TO.N,Net-(C1-Pad2)*%
X66040000Y-55880000D03*
%TO.P,C1,1*%
%TO.N,Net-(BZ1-Pad1)*%
X67415000Y-55880000D03*
%TD*%
D14*
%TO.N,Net-(BZ1-Pad2)*%
X59690000Y-58420000D03*
%TO.N,Net-(BZ1-Pad1)*%
X58420000Y-53340000D03*
%TD*%
D15*
%TO.N,Net-(BZ1-Pad2)*%
X63500000Y-62020000D02*
X65200000Y-60320000D01*
X63500000Y-62125000D02*
X63500000Y-62020000D01*
X64560000Y-62125000D02*
X65935000Y-63500000D01*
X63500000Y-62125000D02*
X64560000Y-62125000D01*
X60855000Y-59480000D02*
X63500000Y-62125000D01*
X60855000Y-58420000D02*
X60855000Y-58420000D01*
X60855000Y-58420000D02*
X60855000Y-59480000D01*
X60855000Y-58420000D02*
X59690000Y-58420000D01*
%TO.N,Net-(BZ1-Pad1)*%
X67310000Y-61210000D02*
X68200000Y-60320000D01*
X67310000Y-63500000D02*
X67310000Y-61210000D01*
X67324990Y-59444990D02*
X68200000Y-60320000D01*
X67324990Y-55970010D02*
X67324990Y-59444990D01*
X67415000Y-55880000D02*
X67324990Y-55970010D01*
X67415000Y-54180000D02*
X67415000Y-55880000D01*
X67415000Y-54180000D02*
X67415000Y-53235000D01*
X58525000Y-53235000D02*
X58420000Y-53340000D01*
X67415000Y-53235000D02*
X58525000Y-53235000D01*
%TO.N,Net-(C1-Pad2)*%
X66040000Y-57580000D02*
X65200000Y-58420000D01*
X66040000Y-55880000D02*
X66040000Y-57580000D01*
X66040000Y-54180000D02*
X66040000Y-55880000D01*
%TO.N,+5V*%
X58420000Y-63500000D02*
X63500000Y-63500000D01*
X63500000Y-63500000D02*
X64770000Y-64770000D01*
X67437502Y-64770000D02*
X69850000Y-62357502D01*
X64770000Y-64770000D02*
X67437502Y-64770000D01*
X69850000Y-60070000D02*
X68200000Y-58420000D01*
X69850000Y-62357502D02*
X69850000Y-60070000D01*
%TO.N,GND*%
X63180000Y-59370000D02*
X65200000Y-59370000D01*
X62230000Y-58420000D02*
X63180000Y-59370000D01*
X62230000Y-55880000D02*
X62230000Y-58420000D01*
X61051998Y-55880000D02*
X62230000Y-55880000D01*
X58420000Y-58511998D02*
X61051998Y-55880000D01*
X58420000Y-60960000D02*
X58420000Y-58511998D01*
%TD*%
M02*
