%TF.GenerationSoftware,KiCad,Pcbnew,5.1.10*%
%TF.CreationDate,2021-05-24T18:10:12-07:00*%
%TF.ProjectId,exocam_charge_amp,65786f63-616d-45f6-9368-617267655f61,rev?*%
%TF.SameCoordinates,Original*%
%TF.FileFunction,Soldermask,Top*%
%TF.FilePolarity,Negative*%
%FSLAX46Y46*%
G04 Gerber Fmt 4.6, Leading zero omitted, Abs format (unit mm)*
G04 Created by KiCad (PCBNEW 5.1.10) date 2021-05-24 18:10:12*
%MOMM*%
%LPD*%
G01*
G04 APERTURE LIST*
%ADD10R,0.725000X0.900000*%
%ADD11R,0.900000X0.725000*%
%ADD12C,1.000000*%
%ADD13R,1.000000X1.000000*%
G04 APERTURE END LIST*
%TO.C,U1*%
G36*
G01*
X67650000Y-60470000D02*
X67650000Y-60170000D01*
G75*
G02*
X67800000Y-60020000I150000J0D01*
G01*
X68600000Y-60020000D01*
G75*
G02*
X68750000Y-60170000I0J-150000D01*
G01*
X68750000Y-60470000D01*
G75*
G02*
X68600000Y-60620000I-150000J0D01*
G01*
X67800000Y-60620000D01*
G75*
G02*
X67650000Y-60470000I0J150000D01*
G01*
G37*
G36*
G01*
X64650000Y-60470000D02*
X64650000Y-60170000D01*
G75*
G02*
X64800000Y-60020000I150000J0D01*
G01*
X65600000Y-60020000D01*
G75*
G02*
X65750000Y-60170000I0J-150000D01*
G01*
X65750000Y-60470000D01*
G75*
G02*
X65600000Y-60620000I-150000J0D01*
G01*
X64800000Y-60620000D01*
G75*
G02*
X64650000Y-60470000I0J150000D01*
G01*
G37*
G36*
G01*
X64650000Y-59520000D02*
X64650000Y-59220000D01*
G75*
G02*
X64800000Y-59070000I150000J0D01*
G01*
X65600000Y-59070000D01*
G75*
G02*
X65750000Y-59220000I0J-150000D01*
G01*
X65750000Y-59520000D01*
G75*
G02*
X65600000Y-59670000I-150000J0D01*
G01*
X64800000Y-59670000D01*
G75*
G02*
X64650000Y-59520000I0J150000D01*
G01*
G37*
G36*
G01*
X67650000Y-58570000D02*
X67650000Y-58270000D01*
G75*
G02*
X67800000Y-58120000I150000J0D01*
G01*
X68600000Y-58120000D01*
G75*
G02*
X68750000Y-58270000I0J-150000D01*
G01*
X68750000Y-58570000D01*
G75*
G02*
X68600000Y-58720000I-150000J0D01*
G01*
X67800000Y-58720000D01*
G75*
G02*
X67650000Y-58570000I0J150000D01*
G01*
G37*
G36*
G01*
X64650000Y-58570000D02*
X64650000Y-58270000D01*
G75*
G02*
X64800000Y-58120000I150000J0D01*
G01*
X65600000Y-58120000D01*
G75*
G02*
X65750000Y-58270000I0J-150000D01*
G01*
X65750000Y-58570000D01*
G75*
G02*
X65600000Y-58720000I-150000J0D01*
G01*
X64800000Y-58720000D01*
G75*
G02*
X64650000Y-58570000I0J150000D01*
G01*
G37*
%TD*%
D10*
%TO.C,R4*%
X67310000Y-63500000D03*
X65935000Y-63500000D03*
%TD*%
%TO.C,R3*%
X66040000Y-54180000D03*
X67415000Y-54180000D03*
%TD*%
%TO.C,R2*%
X62230000Y-58420000D03*
X60855000Y-58420000D03*
%TD*%
D11*
%TO.C,R1*%
X63500000Y-62125000D03*
X63500000Y-63500000D03*
%TD*%
D12*
%TO.C,J1*%
X58420000Y-63500000D03*
D13*
X58420000Y-60960000D03*
%TD*%
D10*
%TO.C,C1*%
X66040000Y-55880000D03*
X67415000Y-55880000D03*
%TD*%
M02*
