%TF.GenerationSoftware,KiCad,Pcbnew,5.1.10*%
%TF.CreationDate,2021-05-24T18:10:12-07:00*%
%TF.ProjectId,exocam_charge_amp,65786f63-616d-45f6-9368-617267655f61,rev?*%
%TF.SameCoordinates,Original*%
%TF.FileFunction,Legend,Bot*%
%TF.FilePolarity,Positive*%
%FSLAX46Y46*%
G04 Gerber Fmt 4.6, Leading zero omitted, Abs format (unit mm)*
G04 Created by KiCad (PCBNEW 5.1.10) date 2021-05-24 18:10:12*
%MOMM*%
%LPD*%
G01*
G04 APERTURE LIST*
%ADD10C,0.120000*%
%ADD11C,0.150000*%
G04 APERTURE END LIST*
D10*
%TO.C,J1*%
X59690000Y-59690000D02*
X57150000Y-59690000D01*
X59690000Y-64770000D02*
X59690000Y-59690000D01*
X57150000Y-64770000D02*
X59690000Y-64770000D01*
X57150000Y-59690000D02*
X57150000Y-64770000D01*
D11*
X55832380Y-63166666D02*
X56546666Y-63166666D01*
X56689523Y-63119047D01*
X56784761Y-63023809D01*
X56832380Y-62880952D01*
X56832380Y-62785714D01*
X56832380Y-64166666D02*
X56832380Y-63595238D01*
X56832380Y-63880952D02*
X55832380Y-63880952D01*
X55975238Y-63785714D01*
X56070476Y-63690476D01*
X56118095Y-63595238D01*
%TO.C,BZ1*%
X61840952Y-53268571D02*
X61698095Y-53316190D01*
X61650476Y-53363809D01*
X61602857Y-53459047D01*
X61602857Y-53601904D01*
X61650476Y-53697142D01*
X61698095Y-53744761D01*
X61793333Y-53792380D01*
X62174285Y-53792380D01*
X62174285Y-52792380D01*
X61840952Y-52792380D01*
X61745714Y-52840000D01*
X61698095Y-52887619D01*
X61650476Y-52982857D01*
X61650476Y-53078095D01*
X61698095Y-53173333D01*
X61745714Y-53220952D01*
X61840952Y-53268571D01*
X62174285Y-53268571D01*
X61269523Y-52792380D02*
X60602857Y-52792380D01*
X61269523Y-53792380D01*
X60602857Y-53792380D01*
X59698095Y-53792380D02*
X60269523Y-53792380D01*
X59983809Y-53792380D02*
X59983809Y-52792380D01*
X60079047Y-52935238D01*
X60174285Y-53030476D01*
X60269523Y-53078095D01*
%TD*%
M02*
