%TF.GenerationSoftware,KiCad,Pcbnew,5.1.10*%
%TF.CreationDate,2021-08-13T08:36:53-07:00*%
%TF.ProjectId,main_board,6d61696e-5f62-46f6-9172-642e6b696361,rev?*%
%TF.SameCoordinates,Original*%
%TF.FileFunction,Copper,L2,Bot*%
%TF.FilePolarity,Positive*%
%FSLAX46Y46*%
G04 Gerber Fmt 4.6, Leading zero omitted, Abs format (unit mm)*
G04 Created by KiCad (PCBNEW 5.1.10) date 2021-08-13 08:36:53*
%MOMM*%
%LPD*%
G01*
G04 APERTURE LIST*
%TA.AperFunction,ComponentPad*%
%ADD10C,2.500000*%
%TD*%
%TA.AperFunction,ComponentPad*%
%ADD11C,3.000000*%
%TD*%
%TA.AperFunction,ComponentPad*%
%ADD12C,1.600000*%
%TD*%
%TA.AperFunction,ComponentPad*%
%ADD13R,1.600000X1.600000*%
%TD*%
%TA.AperFunction,SMDPad,CuDef*%
%ADD14R,1.800000X1.200000*%
%TD*%
%TA.AperFunction,SMDPad,CuDef*%
%ADD15R,1.550000X0.600000*%
%TD*%
%TA.AperFunction,SMDPad,CuDef*%
%ADD16R,0.900000X0.725000*%
%TD*%
%TA.AperFunction,SMDPad,CuDef*%
%ADD17R,0.725000X0.900000*%
%TD*%
%TA.AperFunction,SMDPad,CuDef*%
%ADD18C,2.000000*%
%TD*%
%TA.AperFunction,SMDPad,CuDef*%
%ADD19R,2.000000X2.000000*%
%TD*%
%TA.AperFunction,ViaPad*%
%ADD20C,0.800000*%
%TD*%
%TA.AperFunction,Conductor*%
%ADD21C,0.250000*%
%TD*%
G04 APERTURE END LIST*
D10*
%TO.P,H5,1*%
%TO.N,N/C*%
X125679200Y-83067000D03*
%TD*%
D11*
%TO.P,H3,1*%
%TO.N,N/C*%
X57360000Y-93744000D03*
%TD*%
%TO.P,H4,1*%
%TO.N,N/C*%
X57360000Y-72390000D03*
%TD*%
%TO.P,H2,1*%
%TO.N,N/C*%
X129974000Y-93744000D03*
%TD*%
%TO.P,H1,1*%
%TO.N,N/C*%
X129974000Y-72390000D03*
%TD*%
D12*
%TO.P,U1,87*%
%TO.N,Net-(U1-Pad87)*%
X62344300Y-82009900D03*
%TO.P,U1,88*%
%TO.N,Net-(U1-Pad88)*%
X62344300Y-84029900D03*
%TO.P,U1,86*%
%TO.N,Net-(U1-Pad86)*%
X76314300Y-80479900D03*
%TO.P,U1,85*%
%TO.N,Net-(U1-Pad85)*%
X78854300Y-80479900D03*
%TO.P,U1,84*%
%TO.N,Net-(U1-Pad84)*%
X81394300Y-80479900D03*
%TO.P,U1,83*%
%TO.N,Net-(U1-Pad83)*%
X83934300Y-80479900D03*
%TO.P,U1,66*%
%TO.N,Net-(U1-Pad66)*%
X83934300Y-83019900D03*
%TO.P,U1,65*%
%TO.N,Net-(U1-Pad65)*%
X81394300Y-83019900D03*
%TO.P,U1,63*%
%TO.N,Net-(U1-Pad63)*%
X76314300Y-83019900D03*
%TO.P,U1,64*%
%TO.N,Net-(U1-Pad64)*%
X78854300Y-83019900D03*
%TO.P,U1,67*%
%TO.N,Net-(U1-Pad67)*%
X99174300Y-83019900D03*
%TO.P,U1,82*%
%TO.N,Net-(U1-Pad82)*%
X99174300Y-80479900D03*
%TO.P,U1,68*%
%TO.N,Net-(U1-Pad68)*%
X101714300Y-83019900D03*
%TO.P,U1,81*%
%TO.N,Net-(U1-Pad81)*%
X101714300Y-80479900D03*
%TO.P,U1,69*%
%TO.N,Net-(U1-Pad69)*%
X104254300Y-83019900D03*
%TO.P,U1,80*%
%TO.N,Net-(U1-Pad80)*%
X104254300Y-80479900D03*
%TO.P,U1,74*%
%TO.N,Net-(U1-Pad74)*%
X119494300Y-83019900D03*
%TO.P,U1,75*%
%TO.N,Net-(U1-Pad75)*%
X119494300Y-80479900D03*
%TO.P,U1,70*%
%TO.N,Net-(U1-Pad70)*%
X109334300Y-83019900D03*
%TO.P,U1,71*%
%TO.N,Net-(U1-Pad71)*%
X111874300Y-83019900D03*
%TO.P,U1,72*%
%TO.N,Net-(U1-Pad72)*%
X114414300Y-83019900D03*
%TO.P,U1,73*%
%TO.N,Net-(U1-Pad73)*%
X116954300Y-83019900D03*
%TO.P,U1,76*%
%TO.N,Net-(U1-Pad76)*%
X116954300Y-80479900D03*
%TO.P,U1,77*%
%TO.N,Net-(U1-Pad77)*%
X114414300Y-80479900D03*
%TO.P,U1,78*%
%TO.N,AMP16*%
X111874300Y-80479900D03*
%TO.P,U1,79*%
%TO.N,AMP17*%
X109334300Y-80479900D03*
%TO.P,U1,62*%
%TO.N,Net-(U1-Pad62)*%
X77584300Y-87639900D03*
%TO.P,U1,61*%
%TO.N,Net-(U1-Pad61)*%
X75044300Y-87639900D03*
%TO.P,U1,60*%
%TO.N,Net-(U1-Pad60)*%
X72504300Y-87639900D03*
%TO.P,U1,59*%
%TO.N,Net-(U1-Pad59)*%
X69964300Y-87639900D03*
%TO.P,U1,58*%
%TO.N,Net-(U1-Pad58)*%
X67424300Y-87639900D03*
%TO.P,U1,57*%
%TO.N,Net-(U1-Pad57)*%
X73774300Y-77939900D03*
%TO.P,U1,56*%
%TO.N,Net-(U1-Pad56)*%
X71234300Y-77939900D03*
%TO.P,U1,55*%
%TO.N,Net-(U1-Pad55)*%
X68694300Y-77939900D03*
%TO.P,U1,54*%
%TO.N,Net-(U1-Pad54)*%
X63614300Y-77939900D03*
%TO.P,U1,53*%
%TO.N,BAT*%
X61074300Y-75399900D03*
%TO.P,U1,52*%
%TO.N,Net-(U1-Pad52)*%
X63614300Y-75399900D03*
%TO.P,U1,51*%
%TO.N,+3V3*%
X66154300Y-75399900D03*
%TO.P,U1,50*%
%TO.N,Net-(U1-Pad50)*%
X68694300Y-75399900D03*
%TO.P,U1,49*%
%TO.N,Net-(U1-Pad49)*%
X71234300Y-75399900D03*
%TO.P,U1,48*%
%TO.N,Net-(U1-Pad48)*%
X73774300Y-75399900D03*
%TO.P,U1,47*%
%TO.N,AMP14*%
X76314300Y-75399900D03*
%TO.P,U1,46*%
%TO.N,AMP13*%
X78854300Y-75399900D03*
%TO.P,U1,45*%
%TO.N,AMP12*%
X81394300Y-75399900D03*
%TO.P,U1,44*%
%TO.N,AMP4*%
X83934300Y-75399900D03*
%TO.P,U1,43*%
%TO.N,AMP3*%
X86474300Y-75399900D03*
%TO.P,U1,42*%
%TO.N,AMP2*%
X89014300Y-75399900D03*
%TO.P,U1,41*%
%TO.N,AMP1*%
X91554300Y-75399900D03*
%TO.P,U1,40*%
%TO.N,Net-(U1-Pad40)*%
X94094300Y-75399900D03*
%TO.P,U1,39*%
%TO.N,Net-(U1-Pad39)*%
X96634300Y-75399900D03*
%TO.P,U1,38*%
%TO.N,Net-(U1-Pad38)*%
X99174300Y-75399900D03*
D13*
%TO.P,U1,1*%
%TO.N,GND*%
X61074300Y-90639900D03*
D12*
%TO.P,U1,2*%
%TO.N,Net-(U1-Pad2)*%
X63614300Y-90639900D03*
%TO.P,U1,3*%
%TO.N,Net-(U1-Pad3)*%
X66154300Y-90639900D03*
%TO.P,U1,4*%
%TO.N,Net-(U1-Pad4)*%
X68694300Y-90639900D03*
%TO.P,U1,5*%
%TO.N,Net-(U1-Pad5)*%
X71234300Y-90639900D03*
%TO.P,U1,6*%
%TO.N,Net-(U1-Pad6)*%
X73774300Y-90639900D03*
%TO.P,U1,7*%
%TO.N,Net-(U1-Pad7)*%
X76314300Y-90639900D03*
%TO.P,U1,8*%
%TO.N,Net-(U1-Pad8)*%
X78854300Y-90639900D03*
%TO.P,U1,9*%
%TO.N,Net-(U1-Pad9)*%
X81394300Y-90639900D03*
%TO.P,U1,10*%
%TO.N,Net-(U1-Pad10)*%
X83934300Y-90639900D03*
%TO.P,U1,11*%
%TO.N,Net-(U1-Pad11)*%
X86474300Y-90639900D03*
%TO.P,U1,12*%
%TO.N,Net-(U1-Pad12)*%
X89014300Y-90639900D03*
%TO.P,U1,13*%
%TO.N,Net-(U1-Pad13)*%
X91554300Y-90639900D03*
%TO.P,U1,37*%
%TO.N,Net-(U1-Pad37)*%
X101714300Y-75399900D03*
%TO.P,U1,36*%
%TO.N,AMP11*%
X104254300Y-75399900D03*
%TO.P,U1,35*%
%TO.N,AMP10*%
X106794300Y-75399900D03*
%TO.P,U1,34*%
%TO.N,AMP9*%
X109334300Y-75399900D03*
%TO.P,U1,33*%
%TO.N,AMP8*%
X111874300Y-75399900D03*
%TO.P,U1,32*%
%TO.N,AMP7*%
X114414300Y-75399900D03*
%TO.P,U1,31*%
%TO.N,AMP6*%
X116954300Y-75399900D03*
%TO.P,U1,30*%
%TO.N,AMP15*%
X119494300Y-75399900D03*
%TO.P,U1,29*%
%TO.N,Net-(U1-Pad29)*%
X106794300Y-77939900D03*
%TO.P,U1,28*%
%TO.N,Net-(U1-Pad28)*%
X106794300Y-80479900D03*
%TO.P,U1,27*%
%TO.N,GND*%
X106794300Y-83019900D03*
%TO.P,U1,26*%
%TO.N,Net-(U1-Pad26)*%
X106794300Y-85559900D03*
%TO.P,U1,25*%
%TO.N,RTCBat*%
X106794300Y-88099900D03*
%TO.P,U1,24*%
%TO.N,Net-(U1-Pad24)*%
X119494300Y-90639900D03*
%TO.P,U1,23*%
%TO.N,Net-(U1-Pad23)*%
X116954300Y-90639900D03*
%TO.P,U1,22*%
%TO.N,Net-(U1-Pad22)*%
X114414300Y-90639900D03*
%TO.P,U1,21*%
%TO.N,Net-(U1-Pad21)*%
X111874300Y-90639900D03*
%TO.P,U1,14*%
%TO.N,Net-(U1-Pad14)*%
X94094300Y-90639900D03*
%TO.P,U1,15*%
%TO.N,Net-(U1-Pad15)*%
X96634300Y-90639900D03*
%TO.P,U1,16*%
%TO.N,Net-(U1-Pad16)*%
X99174300Y-90639900D03*
%TO.P,U1,20*%
%TO.N,Net-(U1-Pad20)*%
X109334300Y-90639900D03*
%TO.P,U1,19*%
%TO.N,Net-(U1-Pad19)*%
X106794300Y-90639900D03*
%TO.P,U1,18*%
%TO.N,Net-(U1-Pad18)*%
X104254300Y-90639900D03*
%TO.P,U1,17*%
%TO.N,Net-(U1-Pad17)*%
X101714300Y-90639900D03*
%TD*%
D14*
%TO.P,J1,5*%
%TO.N,Net-(J1-Pad5)*%
X56001100Y-86185300D03*
X56001100Y-79985300D03*
D15*
%TO.P,J1,4*%
%TO.N,RTCBat*%
X59601100Y-81585300D03*
%TO.P,J1,3*%
%TO.N,GND*%
X59601100Y-82585300D03*
%TO.P,J1,2*%
%TO.N,BAT*%
X59601100Y-83585300D03*
%TO.P,J1,1*%
%TO.N,GND*%
X59601100Y-84585300D03*
%TD*%
%TO.P,U4,4*%
%TO.N,UNAMP17*%
%TA.AperFunction,SMDPad,CuDef*%
G36*
G01*
X119680900Y-86070500D02*
X119680900Y-85770500D01*
G75*
G02*
X119830900Y-85620500I150000J0D01*
G01*
X120630900Y-85620500D01*
G75*
G02*
X120780900Y-85770500I0J-150000D01*
G01*
X120780900Y-86070500D01*
G75*
G02*
X120630900Y-86220500I-150000J0D01*
G01*
X119830900Y-86220500D01*
G75*
G02*
X119680900Y-86070500I0J150000D01*
G01*
G37*
%TD.AperFunction*%
%TO.P,U4,3*%
%TO.N,VGND*%
%TA.AperFunction,SMDPad,CuDef*%
G36*
G01*
X116680900Y-86070500D02*
X116680900Y-85770500D01*
G75*
G02*
X116830900Y-85620500I150000J0D01*
G01*
X117630900Y-85620500D01*
G75*
G02*
X117780900Y-85770500I0J-150000D01*
G01*
X117780900Y-86070500D01*
G75*
G02*
X117630900Y-86220500I-150000J0D01*
G01*
X116830900Y-86220500D01*
G75*
G02*
X116680900Y-86070500I0J150000D01*
G01*
G37*
%TD.AperFunction*%
%TO.P,U4,2*%
%TO.N,GND*%
%TA.AperFunction,SMDPad,CuDef*%
G36*
G01*
X116680900Y-87020500D02*
X116680900Y-86720500D01*
G75*
G02*
X116830900Y-86570500I150000J0D01*
G01*
X117630900Y-86570500D01*
G75*
G02*
X117780900Y-86720500I0J-150000D01*
G01*
X117780900Y-87020500D01*
G75*
G02*
X117630900Y-87170500I-150000J0D01*
G01*
X116830900Y-87170500D01*
G75*
G02*
X116680900Y-87020500I0J150000D01*
G01*
G37*
%TD.AperFunction*%
%TO.P,U4,5*%
%TO.N,+3V3*%
%TA.AperFunction,SMDPad,CuDef*%
G36*
G01*
X119680900Y-87970500D02*
X119680900Y-87670500D01*
G75*
G02*
X119830900Y-87520500I150000J0D01*
G01*
X120630900Y-87520500D01*
G75*
G02*
X120780900Y-87670500I0J-150000D01*
G01*
X120780900Y-87970500D01*
G75*
G02*
X120630900Y-88120500I-150000J0D01*
G01*
X119830900Y-88120500D01*
G75*
G02*
X119680900Y-87970500I0J150000D01*
G01*
G37*
%TD.AperFunction*%
%TO.P,U4,1*%
%TO.N,AMP17*%
%TA.AperFunction,SMDPad,CuDef*%
G36*
G01*
X116680900Y-87970500D02*
X116680900Y-87670500D01*
G75*
G02*
X116830900Y-87520500I150000J0D01*
G01*
X117630900Y-87520500D01*
G75*
G02*
X117780900Y-87670500I0J-150000D01*
G01*
X117780900Y-87970500D01*
G75*
G02*
X117630900Y-88120500I-150000J0D01*
G01*
X116830900Y-88120500D01*
G75*
G02*
X116680900Y-87970500I0J150000D01*
G01*
G37*
%TD.AperFunction*%
%TD*%
D16*
%TO.P,R8,2*%
%TO.N,AMP17*%
X115544600Y-87452200D03*
%TO.P,R8,1*%
%TO.N,UNAMP17*%
X115544600Y-86077200D03*
%TD*%
D17*
%TO.P,R7,2*%
%TO.N,UNAMP17*%
X125949300Y-90297000D03*
%TO.P,R7,1*%
%TO.N,VGND*%
X124574300Y-90297000D03*
%TD*%
D16*
%TO.P,R5,2*%
%TO.N,UNAMP16*%
X128778000Y-84696300D03*
%TO.P,R5,1*%
%TO.N,VGND*%
X128778000Y-83321300D03*
%TD*%
D17*
%TO.P,R4,2*%
%TO.N,UNAMP15*%
X125644500Y-75831700D03*
%TO.P,R4,1*%
%TO.N,VGND*%
X124269500Y-75831700D03*
%TD*%
%TO.P,R2,2*%
%TO.N,GND*%
X110502700Y-86080600D03*
%TO.P,R2,1*%
%TO.N,VGND*%
X111877700Y-86080600D03*
%TD*%
%TO.P,R1,2*%
%TO.N,VGND*%
X111848900Y-87655400D03*
%TO.P,R1,1*%
%TO.N,+3V3*%
X110473900Y-87655400D03*
%TD*%
D16*
%TO.P,C3,2*%
%TO.N,AMP17*%
X114147600Y-87452200D03*
%TO.P,C3,1*%
%TO.N,UNAMP17*%
X114147600Y-86077200D03*
%TD*%
D18*
%TO.P,BZ3,2*%
%TO.N,VGND*%
X123855600Y-92290900D03*
D19*
%TO.P,BZ3,1*%
%TO.N,UNAMP17*%
X126355600Y-92290900D03*
%TD*%
%TO.P,BZ2,1*%
%TO.N,UNAMP16*%
X130708400Y-85253200D03*
D18*
%TO.P,BZ2,2*%
%TO.N,VGND*%
X130708400Y-82753200D03*
%TD*%
%TO.P,BZ1,2*%
%TO.N,VGND*%
X123890400Y-73914000D03*
D19*
%TO.P,BZ1,1*%
%TO.N,UNAMP15*%
X126390400Y-73914000D03*
%TD*%
D20*
%TO.N,VGND*%
X123405900Y-89128600D03*
X128524000Y-82270600D03*
X124931001Y-79792999D03*
%TO.N,UNAMP15*%
X125780800Y-78803500D03*
%TO.N,UNAMP16*%
X125680700Y-86409300D03*
%TO.N,+3V3*%
X126326900Y-85293200D03*
X127228600Y-77838300D03*
X127038100Y-76365100D03*
%TO.N,GND*%
X118338600Y-86906100D03*
X124805400Y-86992500D03*
X124206000Y-78625700D03*
%TD*%
D21*
%TO.N,VGND*%
X111877700Y-87626600D02*
X111848900Y-87655400D01*
X111877700Y-86080600D02*
X111877700Y-87626600D01*
X123890400Y-75452600D02*
X124269500Y-75831700D01*
X123890400Y-73914000D02*
X123890400Y-75452600D01*
X129346100Y-82753200D02*
X128778000Y-83321300D01*
X130708400Y-82753200D02*
X129346100Y-82753200D01*
X123855600Y-91015700D02*
X124574300Y-90297000D01*
X123855600Y-92290900D02*
X123855600Y-91015700D01*
X120822810Y-86545510D02*
X123405900Y-89128600D01*
X119009132Y-85920500D02*
X119634142Y-86545510D01*
X117230900Y-85920500D02*
X119009132Y-85920500D01*
X119854890Y-86545510D02*
X120822810Y-86545510D01*
X119634142Y-86545510D02*
X119854890Y-86545510D01*
X123405900Y-89128600D02*
X124574300Y-90297000D01*
X111848900Y-87655400D02*
X111963200Y-87655400D01*
X112966500Y-88658700D02*
X118756290Y-88658700D01*
X111963200Y-87655400D02*
X112966500Y-88658700D01*
X119355890Y-86267258D02*
X119009132Y-85920500D01*
X119355890Y-88059100D02*
X119355890Y-86267258D01*
X118756290Y-88658700D02*
X119355890Y-88059100D01*
X128524000Y-83067300D02*
X128778000Y-83321300D01*
X128524000Y-82270600D02*
X128524000Y-83067300D01*
X124931001Y-76493201D02*
X124269500Y-75831700D01*
X124931001Y-79792999D02*
X124931001Y-79792999D01*
X124931001Y-79792999D02*
X124931001Y-76493201D01*
%TO.N,UNAMP15*%
X126390400Y-75085800D02*
X125644500Y-75831700D01*
X126390400Y-73914000D02*
X126390400Y-75085800D01*
X125644500Y-75831700D02*
X125644500Y-78667200D01*
X125644500Y-78667200D02*
X125780800Y-78803500D01*
X125780800Y-78803500D02*
X125780800Y-78803500D01*
%TO.N,UNAMP16*%
X129334900Y-85253200D02*
X128778000Y-84696300D01*
X130708400Y-85253200D02*
X129334900Y-85253200D01*
X128778000Y-84696300D02*
X128701800Y-84696300D01*
X128663700Y-84696300D02*
X128778000Y-84696300D01*
X127065000Y-86409300D02*
X125680700Y-86409300D01*
X128778000Y-84696300D02*
X127065000Y-86409300D01*
%TO.N,UNAMP17*%
X119605890Y-85295490D02*
X120230900Y-85920500D01*
X116326310Y-85295490D02*
X119605890Y-85295490D01*
X115544600Y-86077200D02*
X116326310Y-85295490D01*
X114147600Y-86077200D02*
X115544600Y-86077200D01*
X126355600Y-90703300D02*
X125949300Y-90297000D01*
X126355600Y-92290900D02*
X126355600Y-90703300D01*
X121595302Y-85920500D02*
X120230900Y-85920500D01*
X125949300Y-90274498D02*
X121595302Y-85920500D01*
X125949300Y-90297000D02*
X125949300Y-90274498D01*
%TO.N,AMP17*%
X114147600Y-87452200D02*
X115544600Y-87452200D01*
X115912900Y-87820500D02*
X117230900Y-87820500D01*
X115544600Y-87452200D02*
X115912900Y-87820500D01*
X113372599Y-86677199D02*
X114147600Y-87452200D01*
X113372599Y-86177997D02*
X113372599Y-86677199D01*
X110459301Y-83264699D02*
X113372599Y-86177997D01*
X110459301Y-81604901D02*
X110459301Y-83264699D01*
X109334300Y-80479900D02*
X110459301Y-81604901D01*
%TO.N,+3V3*%
X110528100Y-87655400D02*
X110473900Y-87655400D01*
X110104499Y-87285999D02*
X110473900Y-87655400D01*
X109793399Y-86974899D02*
X110473900Y-87655400D01*
X106544297Y-86974899D02*
X109793399Y-86974899D01*
X110473900Y-87655400D02*
X111927209Y-89108709D01*
X127228600Y-77838300D02*
X127228600Y-76555600D01*
X127228600Y-76555600D02*
X127038100Y-76365100D01*
X127038100Y-76365100D02*
X127038100Y-76365100D01*
X127254201Y-77863901D02*
X127228600Y-77838300D01*
X127254201Y-84365899D02*
X127254201Y-77863901D01*
X126326900Y-85293200D02*
X127254201Y-84365899D01*
X66154300Y-77064902D02*
X74611198Y-85521800D01*
X66154300Y-75399900D02*
X66154300Y-77064902D01*
X105091198Y-85521800D02*
X106317399Y-86748001D01*
X74611198Y-85521800D02*
X105091198Y-85521800D01*
X106317399Y-86748001D02*
X106544297Y-86974899D01*
X106084297Y-86514899D02*
X106317399Y-86748001D01*
X118942691Y-89108709D02*
X120230900Y-87820500D01*
X111927209Y-89108709D02*
X118942691Y-89108709D01*
%TO.N,GND*%
X110502700Y-86080600D02*
X109728000Y-86080600D01*
X109728000Y-86080600D02*
X109575600Y-85928200D01*
X109575600Y-85928200D02*
X109575600Y-85928200D01*
X117230900Y-86870500D02*
X118338600Y-86906100D01*
X118338600Y-86906100D02*
X118315700Y-86870500D01*
X59601100Y-89166700D02*
X61074300Y-90639900D01*
X59601100Y-84585300D02*
X59601100Y-89166700D01*
X106794300Y-83146900D02*
X106794300Y-83019900D01*
X109575600Y-85928200D02*
X106794300Y-83146900D01*
X123806001Y-85993101D02*
X124805400Y-86992500D01*
X123806001Y-79025699D02*
X123806001Y-85993101D01*
X124206000Y-78625700D02*
X123806001Y-79025699D01*
X60701101Y-84510299D02*
X60626100Y-84585300D01*
X60626100Y-84585300D02*
X59601100Y-84585300D01*
X60701101Y-82660301D02*
X60701101Y-84510299D01*
X60626100Y-82585300D02*
X60701101Y-82660301D01*
X59601100Y-82585300D02*
X60626100Y-82585300D01*
%TO.N,RTCBat*%
X61176400Y-80010000D02*
X59601100Y-81585300D01*
X67310000Y-80010000D02*
X61176400Y-80010000D01*
X73660000Y-86360000D02*
X67310000Y-80010000D01*
X105054400Y-86360000D02*
X73660000Y-86360000D01*
X106794300Y-88099900D02*
X105054400Y-86360000D01*
%TO.N,BAT*%
X59601100Y-83585300D02*
X58576100Y-83585300D01*
X58501099Y-77973101D02*
X61074300Y-75399900D01*
X58501099Y-83510299D02*
X58501099Y-77973101D01*
X58576100Y-83585300D02*
X58501099Y-83510299D01*
%TD*%
M02*
