%TF.GenerationSoftware,KiCad,Pcbnew,5.1.10*%
%TF.CreationDate,2021-08-13T08:36:53-07:00*%
%TF.ProjectId,main_board,6d61696e-5f62-46f6-9172-642e6b696361,rev?*%
%TF.SameCoordinates,Original*%
%TF.FileFunction,Copper,L1,Top*%
%TF.FilePolarity,Positive*%
%FSLAX46Y46*%
G04 Gerber Fmt 4.6, Leading zero omitted, Abs format (unit mm)*
G04 Created by KiCad (PCBNEW 5.1.10) date 2021-08-13 08:36:53*
%MOMM*%
%LPD*%
G01*
G04 APERTURE LIST*
%TA.AperFunction,ComponentPad*%
%ADD10C,2.500000*%
%TD*%
%TA.AperFunction,ComponentPad*%
%ADD11C,3.000000*%
%TD*%
%TA.AperFunction,SMDPad,CuDef*%
%ADD12R,7.000000X1.250000*%
%TD*%
%TA.AperFunction,ComponentPad*%
%ADD13C,1.600000*%
%TD*%
%TA.AperFunction,ComponentPad*%
%ADD14R,1.600000X1.600000*%
%TD*%
%TA.AperFunction,SMDPad,CuDef*%
%ADD15R,0.725000X0.900000*%
%TD*%
%TA.AperFunction,SMDPad,CuDef*%
%ADD16R,0.900000X0.725000*%
%TD*%
%TA.AperFunction,ViaPad*%
%ADD17C,0.800000*%
%TD*%
%TA.AperFunction,Conductor*%
%ADD18C,0.250000*%
%TD*%
G04 APERTURE END LIST*
D10*
%TO.P,H5,1*%
%TO.N,N/C*%
X125679200Y-83067000D03*
%TD*%
D11*
%TO.P,H3,1*%
%TO.N,N/C*%
X57360000Y-93744000D03*
%TD*%
%TO.P,H4,1*%
%TO.N,N/C*%
X57360000Y-72390000D03*
%TD*%
%TO.P,H2,1*%
%TO.N,N/C*%
X129974000Y-93744000D03*
%TD*%
%TO.P,H1,1*%
%TO.N,N/C*%
X129974000Y-72390000D03*
%TD*%
D12*
%TO.P,J3,1*%
%TO.N,GND*%
X64770000Y-95250000D03*
%TD*%
%TO.P,J2,1*%
%TO.N,+3V3*%
X64770000Y-71120000D03*
%TD*%
D13*
%TO.P,U1,87*%
%TO.N,Net-(U1-Pad87)*%
X62344300Y-82009900D03*
%TO.P,U1,88*%
%TO.N,Net-(U1-Pad88)*%
X62344300Y-84029900D03*
%TO.P,U1,86*%
%TO.N,Net-(U1-Pad86)*%
X76314300Y-80479900D03*
%TO.P,U1,85*%
%TO.N,Net-(U1-Pad85)*%
X78854300Y-80479900D03*
%TO.P,U1,84*%
%TO.N,Net-(U1-Pad84)*%
X81394300Y-80479900D03*
%TO.P,U1,83*%
%TO.N,Net-(U1-Pad83)*%
X83934300Y-80479900D03*
%TO.P,U1,66*%
%TO.N,Net-(U1-Pad66)*%
X83934300Y-83019900D03*
%TO.P,U1,65*%
%TO.N,Net-(U1-Pad65)*%
X81394300Y-83019900D03*
%TO.P,U1,63*%
%TO.N,Net-(U1-Pad63)*%
X76314300Y-83019900D03*
%TO.P,U1,64*%
%TO.N,Net-(U1-Pad64)*%
X78854300Y-83019900D03*
%TO.P,U1,67*%
%TO.N,Net-(U1-Pad67)*%
X99174300Y-83019900D03*
%TO.P,U1,82*%
%TO.N,Net-(U1-Pad82)*%
X99174300Y-80479900D03*
%TO.P,U1,68*%
%TO.N,Net-(U1-Pad68)*%
X101714300Y-83019900D03*
%TO.P,U1,81*%
%TO.N,Net-(U1-Pad81)*%
X101714300Y-80479900D03*
%TO.P,U1,69*%
%TO.N,Net-(U1-Pad69)*%
X104254300Y-83019900D03*
%TO.P,U1,80*%
%TO.N,Net-(U1-Pad80)*%
X104254300Y-80479900D03*
%TO.P,U1,74*%
%TO.N,Net-(U1-Pad74)*%
X119494300Y-83019900D03*
%TO.P,U1,75*%
%TO.N,Net-(U1-Pad75)*%
X119494300Y-80479900D03*
%TO.P,U1,70*%
%TO.N,Net-(U1-Pad70)*%
X109334300Y-83019900D03*
%TO.P,U1,71*%
%TO.N,Net-(U1-Pad71)*%
X111874300Y-83019900D03*
%TO.P,U1,72*%
%TO.N,Net-(U1-Pad72)*%
X114414300Y-83019900D03*
%TO.P,U1,73*%
%TO.N,Net-(U1-Pad73)*%
X116954300Y-83019900D03*
%TO.P,U1,76*%
%TO.N,Net-(U1-Pad76)*%
X116954300Y-80479900D03*
%TO.P,U1,77*%
%TO.N,Net-(U1-Pad77)*%
X114414300Y-80479900D03*
%TO.P,U1,78*%
%TO.N,AMP16*%
X111874300Y-80479900D03*
%TO.P,U1,79*%
%TO.N,AMP17*%
X109334300Y-80479900D03*
%TO.P,U1,62*%
%TO.N,Net-(U1-Pad62)*%
X77584300Y-87639900D03*
%TO.P,U1,61*%
%TO.N,Net-(U1-Pad61)*%
X75044300Y-87639900D03*
%TO.P,U1,60*%
%TO.N,Net-(U1-Pad60)*%
X72504300Y-87639900D03*
%TO.P,U1,59*%
%TO.N,Net-(U1-Pad59)*%
X69964300Y-87639900D03*
%TO.P,U1,58*%
%TO.N,Net-(U1-Pad58)*%
X67424300Y-87639900D03*
%TO.P,U1,57*%
%TO.N,Net-(U1-Pad57)*%
X73774300Y-77939900D03*
%TO.P,U1,56*%
%TO.N,Net-(U1-Pad56)*%
X71234300Y-77939900D03*
%TO.P,U1,55*%
%TO.N,Net-(U1-Pad55)*%
X68694300Y-77939900D03*
%TO.P,U1,54*%
%TO.N,Net-(U1-Pad54)*%
X63614300Y-77939900D03*
%TO.P,U1,53*%
%TO.N,BAT*%
X61074300Y-75399900D03*
%TO.P,U1,52*%
%TO.N,Net-(U1-Pad52)*%
X63614300Y-75399900D03*
%TO.P,U1,51*%
%TO.N,+3V3*%
X66154300Y-75399900D03*
%TO.P,U1,50*%
%TO.N,Net-(U1-Pad50)*%
X68694300Y-75399900D03*
%TO.P,U1,49*%
%TO.N,Net-(U1-Pad49)*%
X71234300Y-75399900D03*
%TO.P,U1,48*%
%TO.N,Net-(U1-Pad48)*%
X73774300Y-75399900D03*
%TO.P,U1,47*%
%TO.N,AMP14*%
X76314300Y-75399900D03*
%TO.P,U1,46*%
%TO.N,AMP13*%
X78854300Y-75399900D03*
%TO.P,U1,45*%
%TO.N,AMP12*%
X81394300Y-75399900D03*
%TO.P,U1,44*%
%TO.N,AMP4*%
X83934300Y-75399900D03*
%TO.P,U1,43*%
%TO.N,AMP3*%
X86474300Y-75399900D03*
%TO.P,U1,42*%
%TO.N,AMP2*%
X89014300Y-75399900D03*
%TO.P,U1,41*%
%TO.N,AMP1*%
X91554300Y-75399900D03*
%TO.P,U1,40*%
%TO.N,Net-(U1-Pad40)*%
X94094300Y-75399900D03*
%TO.P,U1,39*%
%TO.N,Net-(U1-Pad39)*%
X96634300Y-75399900D03*
%TO.P,U1,38*%
%TO.N,Net-(U1-Pad38)*%
X99174300Y-75399900D03*
D14*
%TO.P,U1,1*%
%TO.N,GND*%
X61074300Y-90639900D03*
D13*
%TO.P,U1,2*%
%TO.N,Net-(U1-Pad2)*%
X63614300Y-90639900D03*
%TO.P,U1,3*%
%TO.N,Net-(U1-Pad3)*%
X66154300Y-90639900D03*
%TO.P,U1,4*%
%TO.N,Net-(U1-Pad4)*%
X68694300Y-90639900D03*
%TO.P,U1,5*%
%TO.N,Net-(U1-Pad5)*%
X71234300Y-90639900D03*
%TO.P,U1,6*%
%TO.N,Net-(U1-Pad6)*%
X73774300Y-90639900D03*
%TO.P,U1,7*%
%TO.N,Net-(U1-Pad7)*%
X76314300Y-90639900D03*
%TO.P,U1,8*%
%TO.N,Net-(U1-Pad8)*%
X78854300Y-90639900D03*
%TO.P,U1,9*%
%TO.N,Net-(U1-Pad9)*%
X81394300Y-90639900D03*
%TO.P,U1,10*%
%TO.N,Net-(U1-Pad10)*%
X83934300Y-90639900D03*
%TO.P,U1,11*%
%TO.N,Net-(U1-Pad11)*%
X86474300Y-90639900D03*
%TO.P,U1,12*%
%TO.N,Net-(U1-Pad12)*%
X89014300Y-90639900D03*
%TO.P,U1,13*%
%TO.N,Net-(U1-Pad13)*%
X91554300Y-90639900D03*
%TO.P,U1,37*%
%TO.N,Net-(U1-Pad37)*%
X101714300Y-75399900D03*
%TO.P,U1,36*%
%TO.N,AMP11*%
X104254300Y-75399900D03*
%TO.P,U1,35*%
%TO.N,AMP10*%
X106794300Y-75399900D03*
%TO.P,U1,34*%
%TO.N,AMP9*%
X109334300Y-75399900D03*
%TO.P,U1,33*%
%TO.N,AMP8*%
X111874300Y-75399900D03*
%TO.P,U1,32*%
%TO.N,AMP7*%
X114414300Y-75399900D03*
%TO.P,U1,31*%
%TO.N,AMP6*%
X116954300Y-75399900D03*
%TO.P,U1,30*%
%TO.N,AMP15*%
X119494300Y-75399900D03*
%TO.P,U1,29*%
%TO.N,Net-(U1-Pad29)*%
X106794300Y-77939900D03*
%TO.P,U1,28*%
%TO.N,Net-(U1-Pad28)*%
X106794300Y-80479900D03*
%TO.P,U1,27*%
%TO.N,GND*%
X106794300Y-83019900D03*
%TO.P,U1,26*%
%TO.N,Net-(U1-Pad26)*%
X106794300Y-85559900D03*
%TO.P,U1,25*%
%TO.N,RTCBat*%
X106794300Y-88099900D03*
%TO.P,U1,24*%
%TO.N,Net-(U1-Pad24)*%
X119494300Y-90639900D03*
%TO.P,U1,23*%
%TO.N,Net-(U1-Pad23)*%
X116954300Y-90639900D03*
%TO.P,U1,22*%
%TO.N,Net-(U1-Pad22)*%
X114414300Y-90639900D03*
%TO.P,U1,21*%
%TO.N,Net-(U1-Pad21)*%
X111874300Y-90639900D03*
%TO.P,U1,14*%
%TO.N,Net-(U1-Pad14)*%
X94094300Y-90639900D03*
%TO.P,U1,15*%
%TO.N,Net-(U1-Pad15)*%
X96634300Y-90639900D03*
%TO.P,U1,16*%
%TO.N,Net-(U1-Pad16)*%
X99174300Y-90639900D03*
%TO.P,U1,20*%
%TO.N,Net-(U1-Pad20)*%
X109334300Y-90639900D03*
%TO.P,U1,19*%
%TO.N,Net-(U1-Pad19)*%
X106794300Y-90639900D03*
%TO.P,U1,18*%
%TO.N,Net-(U1-Pad18)*%
X104254300Y-90639900D03*
%TO.P,U1,17*%
%TO.N,Net-(U1-Pad17)*%
X101714300Y-90639900D03*
%TD*%
%TO.P,U3,1*%
%TO.N,AMP16*%
%TA.AperFunction,SMDPad,CuDef*%
G36*
G01*
X123363900Y-86192500D02*
X123363900Y-85892500D01*
G75*
G02*
X123513900Y-85742500I150000J0D01*
G01*
X124313900Y-85742500D01*
G75*
G02*
X124463900Y-85892500I0J-150000D01*
G01*
X124463900Y-86192500D01*
G75*
G02*
X124313900Y-86342500I-150000J0D01*
G01*
X123513900Y-86342500D01*
G75*
G02*
X123363900Y-86192500I0J150000D01*
G01*
G37*
%TD.AperFunction*%
%TO.P,U3,5*%
%TO.N,+3V3*%
%TA.AperFunction,SMDPad,CuDef*%
G36*
G01*
X126363900Y-86192500D02*
X126363900Y-85892500D01*
G75*
G02*
X126513900Y-85742500I150000J0D01*
G01*
X127313900Y-85742500D01*
G75*
G02*
X127463900Y-85892500I0J-150000D01*
G01*
X127463900Y-86192500D01*
G75*
G02*
X127313900Y-86342500I-150000J0D01*
G01*
X126513900Y-86342500D01*
G75*
G02*
X126363900Y-86192500I0J150000D01*
G01*
G37*
%TD.AperFunction*%
%TO.P,U3,2*%
%TO.N,GND*%
%TA.AperFunction,SMDPad,CuDef*%
G36*
G01*
X123363900Y-87142500D02*
X123363900Y-86842500D01*
G75*
G02*
X123513900Y-86692500I150000J0D01*
G01*
X124313900Y-86692500D01*
G75*
G02*
X124463900Y-86842500I0J-150000D01*
G01*
X124463900Y-87142500D01*
G75*
G02*
X124313900Y-87292500I-150000J0D01*
G01*
X123513900Y-87292500D01*
G75*
G02*
X123363900Y-87142500I0J150000D01*
G01*
G37*
%TD.AperFunction*%
%TO.P,U3,3*%
%TO.N,VGND*%
%TA.AperFunction,SMDPad,CuDef*%
G36*
G01*
X123363900Y-88092500D02*
X123363900Y-87792500D01*
G75*
G02*
X123513900Y-87642500I150000J0D01*
G01*
X124313900Y-87642500D01*
G75*
G02*
X124463900Y-87792500I0J-150000D01*
G01*
X124463900Y-88092500D01*
G75*
G02*
X124313900Y-88242500I-150000J0D01*
G01*
X123513900Y-88242500D01*
G75*
G02*
X123363900Y-88092500I0J150000D01*
G01*
G37*
%TD.AperFunction*%
%TO.P,U3,4*%
%TO.N,UNAMP16*%
%TA.AperFunction,SMDPad,CuDef*%
G36*
G01*
X126363900Y-88092500D02*
X126363900Y-87792500D01*
G75*
G02*
X126513900Y-87642500I150000J0D01*
G01*
X127313900Y-87642500D01*
G75*
G02*
X127463900Y-87792500I0J-150000D01*
G01*
X127463900Y-88092500D01*
G75*
G02*
X127313900Y-88242500I-150000J0D01*
G01*
X126513900Y-88242500D01*
G75*
G02*
X126363900Y-88092500I0J150000D01*
G01*
G37*
%TD.AperFunction*%
%TD*%
%TO.P,U2,1*%
%TO.N,AMP15*%
%TA.AperFunction,SMDPad,CuDef*%
G36*
G01*
X122792400Y-77866300D02*
X122792400Y-77566300D01*
G75*
G02*
X122942400Y-77416300I150000J0D01*
G01*
X123742400Y-77416300D01*
G75*
G02*
X123892400Y-77566300I0J-150000D01*
G01*
X123892400Y-77866300D01*
G75*
G02*
X123742400Y-78016300I-150000J0D01*
G01*
X122942400Y-78016300D01*
G75*
G02*
X122792400Y-77866300I0J150000D01*
G01*
G37*
%TD.AperFunction*%
%TO.P,U2,5*%
%TO.N,+3V3*%
%TA.AperFunction,SMDPad,CuDef*%
G36*
G01*
X125792400Y-77866300D02*
X125792400Y-77566300D01*
G75*
G02*
X125942400Y-77416300I150000J0D01*
G01*
X126742400Y-77416300D01*
G75*
G02*
X126892400Y-77566300I0J-150000D01*
G01*
X126892400Y-77866300D01*
G75*
G02*
X126742400Y-78016300I-150000J0D01*
G01*
X125942400Y-78016300D01*
G75*
G02*
X125792400Y-77866300I0J150000D01*
G01*
G37*
%TD.AperFunction*%
%TO.P,U2,2*%
%TO.N,GND*%
%TA.AperFunction,SMDPad,CuDef*%
G36*
G01*
X122792400Y-78816300D02*
X122792400Y-78516300D01*
G75*
G02*
X122942400Y-78366300I150000J0D01*
G01*
X123742400Y-78366300D01*
G75*
G02*
X123892400Y-78516300I0J-150000D01*
G01*
X123892400Y-78816300D01*
G75*
G02*
X123742400Y-78966300I-150000J0D01*
G01*
X122942400Y-78966300D01*
G75*
G02*
X122792400Y-78816300I0J150000D01*
G01*
G37*
%TD.AperFunction*%
%TO.P,U2,3*%
%TO.N,VGND*%
%TA.AperFunction,SMDPad,CuDef*%
G36*
G01*
X122792400Y-79766300D02*
X122792400Y-79466300D01*
G75*
G02*
X122942400Y-79316300I150000J0D01*
G01*
X123742400Y-79316300D01*
G75*
G02*
X123892400Y-79466300I0J-150000D01*
G01*
X123892400Y-79766300D01*
G75*
G02*
X123742400Y-79916300I-150000J0D01*
G01*
X122942400Y-79916300D01*
G75*
G02*
X122792400Y-79766300I0J150000D01*
G01*
G37*
%TD.AperFunction*%
%TO.P,U2,4*%
%TO.N,UNAMP15*%
%TA.AperFunction,SMDPad,CuDef*%
G36*
G01*
X125792400Y-79766300D02*
X125792400Y-79466300D01*
G75*
G02*
X125942400Y-79316300I150000J0D01*
G01*
X126742400Y-79316300D01*
G75*
G02*
X126892400Y-79466300I0J-150000D01*
G01*
X126892400Y-79766300D01*
G75*
G02*
X126742400Y-79916300I-150000J0D01*
G01*
X125942400Y-79916300D01*
G75*
G02*
X125792400Y-79766300I0J150000D01*
G01*
G37*
%TD.AperFunction*%
%TD*%
D15*
%TO.P,R6,2*%
%TO.N,AMP16*%
X122234100Y-84683600D03*
%TO.P,R6,1*%
%TO.N,UNAMP16*%
X123609100Y-84683600D03*
%TD*%
D16*
%TO.P,R3,2*%
%TO.N,AMP15*%
X129095500Y-78143100D03*
%TO.P,R3,1*%
%TO.N,UNAMP15*%
X129095500Y-79518100D03*
%TD*%
D15*
%TO.P,C2,2*%
%TO.N,AMP16*%
X121932700Y-83108800D03*
%TO.P,C2,1*%
%TO.N,UNAMP16*%
X123307700Y-83108800D03*
%TD*%
D16*
%TO.P,C1,2*%
%TO.N,AMP15*%
X130848100Y-78105000D03*
%TO.P,C1,1*%
%TO.N,UNAMP15*%
X130848100Y-79480000D03*
%TD*%
D17*
%TO.N,VGND*%
X123405900Y-89128600D03*
X128524000Y-82270600D03*
X124931001Y-79792999D03*
%TO.N,UNAMP15*%
X125780800Y-78803500D03*
%TO.N,UNAMP16*%
X125680700Y-86409300D03*
%TO.N,+3V3*%
X126326900Y-85293200D03*
X127228600Y-77838300D03*
X127038100Y-76365100D03*
%TO.N,GND*%
X118338600Y-86906100D03*
X124805400Y-86992500D03*
X124206000Y-78625700D03*
%TD*%
D18*
%TO.N,VGND*%
X123405900Y-88450500D02*
X123913900Y-87942500D01*
X123405900Y-89128600D02*
X123405900Y-88450500D01*
X124538910Y-88567510D02*
X127510658Y-88567510D01*
X127510658Y-88567510D02*
X128193800Y-87884368D01*
X123913900Y-87942500D02*
X124538910Y-88567510D01*
X128193800Y-87884368D02*
X128193800Y-82600800D01*
X128193800Y-82600800D02*
X128524000Y-82270600D01*
X128524000Y-82270600D02*
X128524000Y-82270600D01*
X127984250Y-81730850D02*
X126752350Y-80498950D01*
X128524000Y-82270600D02*
X127984250Y-81730850D01*
X127984250Y-81730850D02*
X127745399Y-81491999D01*
X124225050Y-80498950D02*
X123342400Y-79616300D01*
X126752350Y-80498950D02*
X124225050Y-80498950D01*
X125636952Y-80498950D02*
X126752350Y-80498950D01*
X124931001Y-79792999D02*
X125636952Y-80498950D01*
%TO.N,UNAMP15*%
X130810000Y-79518100D02*
X130848100Y-79480000D01*
X129095500Y-79518100D02*
X130810000Y-79518100D01*
X126440600Y-79518100D02*
X126342400Y-79616300D01*
X129095500Y-79518100D02*
X126440600Y-79518100D01*
X125780800Y-79054700D02*
X126342400Y-79616300D01*
X125780800Y-78803500D02*
X125780800Y-79054700D01*
%TO.N,UNAMP16*%
X123307700Y-84382200D02*
X123609100Y-84683600D01*
X123307700Y-83108800D02*
X123307700Y-84382200D01*
X123955000Y-84683600D02*
X123609100Y-84683600D01*
X126913900Y-87642500D02*
X126315700Y-87044300D01*
X126913900Y-87942500D02*
X126913900Y-87642500D01*
X126315700Y-87044300D02*
X125680700Y-86409300D01*
X125680700Y-86409300D02*
X123955000Y-84683600D01*
%TO.N,AMP15*%
X130810000Y-78143100D02*
X130848100Y-78105000D01*
X129095500Y-78143100D02*
X130810000Y-78143100D01*
X129095500Y-78143100D02*
X129095500Y-77584300D01*
X123967410Y-77091290D02*
X123342400Y-77716300D01*
X128602490Y-77091290D02*
X123967410Y-77091290D01*
X129095500Y-77584300D02*
X128602490Y-77091290D01*
X121810700Y-77716300D02*
X119494300Y-75399900D01*
X123342400Y-77716300D02*
X121810700Y-77716300D01*
%TO.N,AMP16*%
X123593000Y-86042500D02*
X123913900Y-86042500D01*
X122234100Y-84683600D02*
X123593000Y-86042500D01*
X113289299Y-81894899D02*
X111874300Y-80479900D01*
X120718799Y-81894899D02*
X113289299Y-81894899D01*
X121932700Y-83108800D02*
X120718799Y-81894899D01*
X121932700Y-84382200D02*
X122234100Y-84683600D01*
X121932700Y-83108800D02*
X121932700Y-84382200D01*
%TO.N,+3V3*%
X126326900Y-85455500D02*
X126913900Y-86042500D01*
X126326900Y-85293200D02*
X126326900Y-85455500D01*
X126342400Y-77716300D02*
X127106600Y-77716300D01*
X127106600Y-77716300D02*
X127228600Y-77838300D01*
X127228600Y-77838300D02*
X127228600Y-77838300D01*
X66154300Y-72504300D02*
X64770000Y-71120000D01*
X66154300Y-75399900D02*
X66154300Y-72504300D01*
X121793000Y-71120000D02*
X64770000Y-71120000D01*
X127038100Y-76365100D02*
X121793000Y-71120000D01*
%TO.N,GND*%
X123791900Y-86870500D02*
X123913900Y-86992500D01*
X123913900Y-86992500D02*
X124805400Y-86992500D01*
X124805400Y-86992500D02*
X124805400Y-86992500D01*
X123342400Y-78666300D02*
X124206000Y-78625700D01*
X124206000Y-78625700D02*
X124165400Y-78666300D01*
X123827500Y-86906100D02*
X123913900Y-86992500D01*
X118338600Y-86906100D02*
X123827500Y-86906100D01*
X61074300Y-90639900D02*
X61074300Y-91274900D01*
X110680500Y-86906100D02*
X106794300Y-83019900D01*
X118338600Y-86906100D02*
X110680500Y-86906100D01*
X61074300Y-91554300D02*
X64770000Y-95250000D01*
X61074300Y-90639900D02*
X61074300Y-91554300D01*
%TD*%
M02*
