M48
; DRILL file {KiCad (5.1.10)-1} date 08/06/21 13:59:01
; FORMAT={-:-/ absolute / inch / decimal}
; #@! TF.CreationDate,2021-08-06T13:59:01-07:00
; #@! TF.GenerationSoftware,Kicad,Pcbnew,(5.1.10)-1
; #@! TF.FileFunction,Plated,1,2,PTH
FMAT,2
INCH
T1C0.0157
T2C0.0433
T3C0.0787
%
G90
G05
T1
X4.4515Y-3.451
X4.659Y-3.4215
X4.762Y-3.487
X4.8585Y-3.509
X4.89Y-3.0955
X4.903Y-3.1995
X4.9136Y-3.4249
X4.9185Y-3.1415
X4.9481Y-3.4019
X4.952Y-3.1025
X4.9735Y-3.358
X5.0015Y-3.0065
X5.009Y-3.0645
X5.06Y-3.239
T2
X2.4045Y-2.9685
X2.4045Y-3.5685
X2.4545Y-3.2287
X2.4545Y-3.3083
X2.5045Y-2.9685
X2.5045Y-3.0685
X2.5045Y-3.5685
X2.6045Y-2.9685
X2.6045Y-3.5685
X2.6545Y-3.4504
X2.7045Y-2.9685
X2.7045Y-3.0685
X2.7045Y-3.5685
X2.7545Y-3.4504
X2.8045Y-2.9685
X2.8045Y-3.0685
X2.8045Y-3.5685
X2.8545Y-3.4504
X2.9045Y-2.9685
X2.9045Y-3.0685
X2.9045Y-3.5685
X2.9545Y-3.4504
X3.0045Y-2.9685
X3.0045Y-3.1685
X3.0045Y-3.2685
X3.0045Y-3.5685
X3.0545Y-3.4504
X3.1045Y-2.9685
X3.1045Y-3.1685
X3.1045Y-3.2685
X3.1045Y-3.5685
X3.2045Y-2.9685
X3.2045Y-3.1685
X3.2045Y-3.2685
X3.2045Y-3.5685
X3.3045Y-2.9685
X3.3045Y-3.1685
X3.3045Y-3.2685
X3.3045Y-3.5685
X3.4045Y-2.9685
X3.4045Y-3.5685
X3.5045Y-2.9685
X3.5045Y-3.5685
X3.6045Y-2.9685
X3.6045Y-3.5685
X3.7045Y-2.9685
X3.7045Y-3.5685
X3.8045Y-2.9685
X3.8045Y-3.5685
X3.9045Y-2.9685
X3.9045Y-3.1685
X3.9045Y-3.2685
X3.9045Y-3.5685
X4.0045Y-2.9685
X4.0045Y-3.1685
X4.0045Y-3.2685
X4.0045Y-3.5685
X4.1045Y-2.9685
X4.1045Y-3.1685
X4.1045Y-3.2685
X4.1045Y-3.5685
X4.2045Y-2.9685
X4.2045Y-3.0685
X4.2045Y-3.1685
X4.2045Y-3.2685
X4.2045Y-3.3685
X4.2045Y-3.4685
X4.2045Y-3.5685
X4.3045Y-2.9685
X4.3045Y-3.1685
X4.3045Y-3.2685
X4.3045Y-3.5685
X4.4045Y-2.9685
X4.4045Y-3.1685
X4.4045Y-3.2685
X4.4045Y-3.5685
X4.5045Y-2.9685
X4.5045Y-3.1685
X4.5045Y-3.2685
X4.5045Y-3.5685
X4.6045Y-2.9685
X4.6045Y-3.1685
X4.6045Y-3.2685
X4.6045Y-3.5685
X4.7045Y-2.9685
X4.7045Y-3.1685
X4.7045Y-3.2685
X4.7045Y-3.5685
T3
X2.2583Y-2.9681
X2.2583Y-3.5726
X4.948Y-3.2704
X5.1171Y-2.9681
X5.1171Y-3.5726
T0
M30
