M48
; DRILL file {KiCad 5.1.10} date Wed Jul 28 16:13:47 2021
; FORMAT={-:-/ absolute / inch / decimal}
; #@! TF.CreationDate,2021-07-28T16:13:47-07:00
; #@! TF.GenerationSoftware,Kicad,Pcbnew,5.1.10
; #@! TF.FileFunction,Plated,1,2,PTH
FMAT,2
INCH
T1C0.0157
T2C0.1181
%
G90
G05
T1
X1.991Y-2.575
X2.111Y-2.5
X2.117Y-2.553
X2.164Y-2.668
X2.29Y-2.7825
X2.305Y-2.338
X2.312Y-2.443
X2.313Y-2.504
X2.318Y-2.646
X2.319Y-2.755
X2.351Y-2.325
X2.362Y-2.614
X2.39Y-2.539
X2.417Y-2.321
X2.4306Y-2.6404
X2.461Y-2.326
X2.486Y-2.638
X2.5012Y-2.7812
X2.5158Y-2.5568
X2.691Y-2.521
X2.7829Y-2.4889
X2.783Y-2.561
X2.901Y-2.469
T2
X2.0125Y-2.325
X2.0125Y-2.7187
X2.7605Y-2.325
X2.7605Y-2.7187
T0
M30
