%TF.GenerationSoftware,KiCad,Pcbnew,5.1.10*%
%TF.CreationDate,2021-05-24T18:10:12-07:00*%
%TF.ProjectId,exocam_charge_amp,65786f63-616d-45f6-9368-617267655f61,rev?*%
%TF.SameCoordinates,Original*%
%TF.FileFunction,Legend,Top*%
%TF.FilePolarity,Positive*%
%FSLAX46Y46*%
G04 Gerber Fmt 4.6, Leading zero omitted, Abs format (unit mm)*
G04 Created by KiCad (PCBNEW 5.1.10) date 2021-05-24 18:10:12*
%MOMM*%
%LPD*%
G01*
G04 APERTURE LIST*
%ADD10C,0.150000*%
G04 APERTURE END LIST*
%TO.C,U1*%
D10*
X69088095Y-57872380D02*
X69088095Y-58681904D01*
X69135714Y-58777142D01*
X69183333Y-58824761D01*
X69278571Y-58872380D01*
X69469047Y-58872380D01*
X69564285Y-58824761D01*
X69611904Y-58777142D01*
X69659523Y-58681904D01*
X69659523Y-57872380D01*
X70659523Y-58872380D02*
X70088095Y-58872380D01*
X70373809Y-58872380D02*
X70373809Y-57872380D01*
X70278571Y-58015238D01*
X70183333Y-58110476D01*
X70088095Y-58158095D01*
%TO.C,R4*%
X69683333Y-65222380D02*
X69350000Y-64746190D01*
X69111904Y-65222380D02*
X69111904Y-64222380D01*
X69492857Y-64222380D01*
X69588095Y-64270000D01*
X69635714Y-64317619D01*
X69683333Y-64412857D01*
X69683333Y-64555714D01*
X69635714Y-64650952D01*
X69588095Y-64698571D01*
X69492857Y-64746190D01*
X69111904Y-64746190D01*
X70540476Y-64555714D02*
X70540476Y-65222380D01*
X70302380Y-64174761D02*
X70064285Y-64889047D01*
X70683333Y-64889047D01*
%TO.C,R3*%
X69683333Y-53792380D02*
X69350000Y-53316190D01*
X69111904Y-53792380D02*
X69111904Y-52792380D01*
X69492857Y-52792380D01*
X69588095Y-52840000D01*
X69635714Y-52887619D01*
X69683333Y-52982857D01*
X69683333Y-53125714D01*
X69635714Y-53220952D01*
X69588095Y-53268571D01*
X69492857Y-53316190D01*
X69111904Y-53316190D01*
X70016666Y-52792380D02*
X70635714Y-52792380D01*
X70302380Y-53173333D01*
X70445238Y-53173333D01*
X70540476Y-53220952D01*
X70588095Y-53268571D01*
X70635714Y-53363809D01*
X70635714Y-53601904D01*
X70588095Y-53697142D01*
X70540476Y-53744761D01*
X70445238Y-53792380D01*
X70159523Y-53792380D01*
X70064285Y-53744761D01*
X70016666Y-53697142D01*
%TO.C,R2*%
X63333333Y-57602380D02*
X63000000Y-57126190D01*
X62761904Y-57602380D02*
X62761904Y-56602380D01*
X63142857Y-56602380D01*
X63238095Y-56650000D01*
X63285714Y-56697619D01*
X63333333Y-56792857D01*
X63333333Y-56935714D01*
X63285714Y-57030952D01*
X63238095Y-57078571D01*
X63142857Y-57126190D01*
X62761904Y-57126190D01*
X63714285Y-56697619D02*
X63761904Y-56650000D01*
X63857142Y-56602380D01*
X64095238Y-56602380D01*
X64190476Y-56650000D01*
X64238095Y-56697619D01*
X64285714Y-56792857D01*
X64285714Y-56888095D01*
X64238095Y-57030952D01*
X63666666Y-57602380D01*
X64285714Y-57602380D01*
%TO.C,R1*%
X61912380Y-62396666D02*
X61436190Y-62730000D01*
X61912380Y-62968095D02*
X60912380Y-62968095D01*
X60912380Y-62587142D01*
X60960000Y-62491904D01*
X61007619Y-62444285D01*
X61102857Y-62396666D01*
X61245714Y-62396666D01*
X61340952Y-62444285D01*
X61388571Y-62491904D01*
X61436190Y-62587142D01*
X61436190Y-62968095D01*
X61912380Y-61444285D02*
X61912380Y-62015714D01*
X61912380Y-61730000D02*
X60912380Y-61730000D01*
X61055238Y-61825238D01*
X61150476Y-61920476D01*
X61198095Y-62015714D01*
%TO.C,C1*%
X69683333Y-56237142D02*
X69635714Y-56284761D01*
X69492857Y-56332380D01*
X69397619Y-56332380D01*
X69254761Y-56284761D01*
X69159523Y-56189523D01*
X69111904Y-56094285D01*
X69064285Y-55903809D01*
X69064285Y-55760952D01*
X69111904Y-55570476D01*
X69159523Y-55475238D01*
X69254761Y-55380000D01*
X69397619Y-55332380D01*
X69492857Y-55332380D01*
X69635714Y-55380000D01*
X69683333Y-55427619D01*
X70635714Y-56332380D02*
X70064285Y-56332380D01*
X70350000Y-56332380D02*
X70350000Y-55332380D01*
X70254761Y-55475238D01*
X70159523Y-55570476D01*
X70064285Y-55618095D01*
%TD*%
M02*
