%TF.GenerationSoftware,KiCad,Pcbnew,5.1.10*%
%TF.CreationDate,2021-07-14T14:56:21-07:00*%
%TF.ProjectId,exocam_charge_amp,65786f63-616d-45f6-9368-617267655f61,rev?*%
%TF.SameCoordinates,Original*%
%TF.FileFunction,Soldermask,Bot*%
%TF.FilePolarity,Negative*%
%FSLAX46Y46*%
G04 Gerber Fmt 4.6, Leading zero omitted, Abs format (unit mm)*
G04 Created by KiCad (PCBNEW 5.1.10) date 2021-07-14 14:56:21*
%MOMM*%
%LPD*%
G01*
G04 APERTURE LIST*
%ADD10R,0.900000X0.725000*%
%ADD11R,0.725000X0.900000*%
%ADD12C,2.000000*%
%ADD13R,2.000000X2.000000*%
%ADD14C,3.500000*%
G04 APERTURE END LIST*
%TO.C,U1*%
G36*
G01*
X60948400Y-60322400D02*
X60948400Y-60622400D01*
G75*
G02*
X60798400Y-60772400I-150000J0D01*
G01*
X59998400Y-60772400D01*
G75*
G02*
X59848400Y-60622400I0J150000D01*
G01*
X59848400Y-60322400D01*
G75*
G02*
X59998400Y-60172400I150000J0D01*
G01*
X60798400Y-60172400D01*
G75*
G02*
X60948400Y-60322400I0J-150000D01*
G01*
G37*
G36*
G01*
X63948400Y-60322400D02*
X63948400Y-60622400D01*
G75*
G02*
X63798400Y-60772400I-150000J0D01*
G01*
X62998400Y-60772400D01*
G75*
G02*
X62848400Y-60622400I0J150000D01*
G01*
X62848400Y-60322400D01*
G75*
G02*
X62998400Y-60172400I150000J0D01*
G01*
X63798400Y-60172400D01*
G75*
G02*
X63948400Y-60322400I0J-150000D01*
G01*
G37*
G36*
G01*
X63948400Y-59372400D02*
X63948400Y-59672400D01*
G75*
G02*
X63798400Y-59822400I-150000J0D01*
G01*
X62998400Y-59822400D01*
G75*
G02*
X62848400Y-59672400I0J150000D01*
G01*
X62848400Y-59372400D01*
G75*
G02*
X62998400Y-59222400I150000J0D01*
G01*
X63798400Y-59222400D01*
G75*
G02*
X63948400Y-59372400I0J-150000D01*
G01*
G37*
G36*
G01*
X60948400Y-58422400D02*
X60948400Y-58722400D01*
G75*
G02*
X60798400Y-58872400I-150000J0D01*
G01*
X59998400Y-58872400D01*
G75*
G02*
X59848400Y-58722400I0J150000D01*
G01*
X59848400Y-58422400D01*
G75*
G02*
X59998400Y-58272400I150000J0D01*
G01*
X60798400Y-58272400D01*
G75*
G02*
X60948400Y-58422400I0J-150000D01*
G01*
G37*
G36*
G01*
X63948400Y-58422400D02*
X63948400Y-58722400D01*
G75*
G02*
X63798400Y-58872400I-150000J0D01*
G01*
X62998400Y-58872400D01*
G75*
G02*
X62848400Y-58722400I0J150000D01*
G01*
X62848400Y-58422400D01*
G75*
G02*
X62998400Y-58272400I150000J0D01*
G01*
X63798400Y-58272400D01*
G75*
G02*
X63948400Y-58422400I0J-150000D01*
G01*
G37*
%TD*%
D10*
%TO.C,R7*%
X48361600Y-63703200D03*
X48361600Y-65078200D03*
%TD*%
%TO.C,R5*%
X72694800Y-65074800D03*
X72694800Y-63699800D03*
%TD*%
%TO.C,R4*%
X55067200Y-58928000D03*
X55067200Y-60303000D03*
%TD*%
D11*
%TO.C,R3*%
X62738000Y-63754000D03*
X61363000Y-63754000D03*
%TD*%
%TO.C,R2*%
X58264200Y-71272400D03*
X59639200Y-71272400D03*
%TD*%
%TO.C,R1*%
X61417200Y-71272400D03*
X62792200Y-71272400D03*
%TD*%
%TO.C,C1*%
X62738000Y-62128400D03*
X61363000Y-62128400D03*
%TD*%
D12*
%TO.C,BZ1*%
X57505600Y-60818400D03*
D13*
X57505600Y-58318400D03*
%TD*%
D14*
%TO.C,H4*%
X51117500Y-59055000D03*
%TD*%
%TO.C,H3*%
X51117500Y-69055000D03*
%TD*%
%TO.C,H2*%
X70117500Y-59055000D03*
%TD*%
%TO.C,H1*%
X70117500Y-69055000D03*
%TD*%
M02*
