%TF.GenerationSoftware,KiCad,Pcbnew,5.1.10*%
%TF.CreationDate,2021-07-14T14:56:21-07:00*%
%TF.ProjectId,exocam_charge_amp,65786f63-616d-45f6-9368-617267655f61,rev?*%
%TF.SameCoordinates,Original*%
%TF.FileFunction,Soldermask,Top*%
%TF.FilePolarity,Negative*%
%FSLAX46Y46*%
G04 Gerber Fmt 4.6, Leading zero omitted, Abs format (unit mm)*
G04 Created by KiCad (PCBNEW 5.1.10) date 2021-07-14 14:56:21*
%MOMM*%
%LPD*%
G01*
G04 APERTURE LIST*
%ADD10R,1.200000X1.800000*%
%ADD11R,0.600000X1.550000*%
%ADD12R,0.725000X0.900000*%
%ADD13R,1.800000X1.200000*%
%ADD14R,1.550000X0.600000*%
%ADD15C,3.500000*%
G04 APERTURE END LIST*
D10*
%TO.C,J1*%
X65480000Y-72370500D03*
D11*
X63880000Y-68770500D03*
X62880000Y-68770500D03*
D10*
X55280000Y-72370500D03*
D11*
X61880000Y-68770500D03*
X60880000Y-68770500D03*
X59880000Y-68770500D03*
X58880000Y-68770500D03*
X57880000Y-68770500D03*
X56880000Y-68770500D03*
%TD*%
%TO.C,U3*%
G36*
G01*
X53938000Y-63329600D02*
X53938000Y-63629600D01*
G75*
G02*
X53788000Y-63779600I-150000J0D01*
G01*
X52988000Y-63779600D01*
G75*
G02*
X52838000Y-63629600I0J150000D01*
G01*
X52838000Y-63329600D01*
G75*
G02*
X52988000Y-63179600I150000J0D01*
G01*
X53788000Y-63179600D01*
G75*
G02*
X53938000Y-63329600I0J-150000D01*
G01*
G37*
G36*
G01*
X56938000Y-63329600D02*
X56938000Y-63629600D01*
G75*
G02*
X56788000Y-63779600I-150000J0D01*
G01*
X55988000Y-63779600D01*
G75*
G02*
X55838000Y-63629600I0J150000D01*
G01*
X55838000Y-63329600D01*
G75*
G02*
X55988000Y-63179600I150000J0D01*
G01*
X56788000Y-63179600D01*
G75*
G02*
X56938000Y-63329600I0J-150000D01*
G01*
G37*
G36*
G01*
X56938000Y-64279600D02*
X56938000Y-64579600D01*
G75*
G02*
X56788000Y-64729600I-150000J0D01*
G01*
X55988000Y-64729600D01*
G75*
G02*
X55838000Y-64579600I0J150000D01*
G01*
X55838000Y-64279600D01*
G75*
G02*
X55988000Y-64129600I150000J0D01*
G01*
X56788000Y-64129600D01*
G75*
G02*
X56938000Y-64279600I0J-150000D01*
G01*
G37*
G36*
G01*
X53938000Y-65229600D02*
X53938000Y-65529600D01*
G75*
G02*
X53788000Y-65679600I-150000J0D01*
G01*
X52988000Y-65679600D01*
G75*
G02*
X52838000Y-65529600I0J150000D01*
G01*
X52838000Y-65229600D01*
G75*
G02*
X52988000Y-65079600I150000J0D01*
G01*
X53788000Y-65079600D01*
G75*
G02*
X53938000Y-65229600I0J-150000D01*
G01*
G37*
G36*
G01*
X56938000Y-65229600D02*
X56938000Y-65529600D01*
G75*
G02*
X56788000Y-65679600I-150000J0D01*
G01*
X55988000Y-65679600D01*
G75*
G02*
X55838000Y-65529600I0J150000D01*
G01*
X55838000Y-65229600D01*
G75*
G02*
X55988000Y-65079600I150000J0D01*
G01*
X56788000Y-65079600D01*
G75*
G02*
X56938000Y-65229600I0J-150000D01*
G01*
G37*
%TD*%
%TO.C,U2*%
G36*
G01*
X67420400Y-65732800D02*
X67420400Y-65432800D01*
G75*
G02*
X67570400Y-65282800I150000J0D01*
G01*
X68370400Y-65282800D01*
G75*
G02*
X68520400Y-65432800I0J-150000D01*
G01*
X68520400Y-65732800D01*
G75*
G02*
X68370400Y-65882800I-150000J0D01*
G01*
X67570400Y-65882800D01*
G75*
G02*
X67420400Y-65732800I0J150000D01*
G01*
G37*
G36*
G01*
X64420400Y-65732800D02*
X64420400Y-65432800D01*
G75*
G02*
X64570400Y-65282800I150000J0D01*
G01*
X65370400Y-65282800D01*
G75*
G02*
X65520400Y-65432800I0J-150000D01*
G01*
X65520400Y-65732800D01*
G75*
G02*
X65370400Y-65882800I-150000J0D01*
G01*
X64570400Y-65882800D01*
G75*
G02*
X64420400Y-65732800I0J150000D01*
G01*
G37*
G36*
G01*
X64420400Y-64782800D02*
X64420400Y-64482800D01*
G75*
G02*
X64570400Y-64332800I150000J0D01*
G01*
X65370400Y-64332800D01*
G75*
G02*
X65520400Y-64482800I0J-150000D01*
G01*
X65520400Y-64782800D01*
G75*
G02*
X65370400Y-64932800I-150000J0D01*
G01*
X64570400Y-64932800D01*
G75*
G02*
X64420400Y-64782800I0J150000D01*
G01*
G37*
G36*
G01*
X67420400Y-63832800D02*
X67420400Y-63532800D01*
G75*
G02*
X67570400Y-63382800I150000J0D01*
G01*
X68370400Y-63382800D01*
G75*
G02*
X68520400Y-63532800I0J-150000D01*
G01*
X68520400Y-63832800D01*
G75*
G02*
X68370400Y-63982800I-150000J0D01*
G01*
X67570400Y-63982800D01*
G75*
G02*
X67420400Y-63832800I0J150000D01*
G01*
G37*
G36*
G01*
X64420400Y-63832800D02*
X64420400Y-63532800D01*
G75*
G02*
X64570400Y-63382800I150000J0D01*
G01*
X65370400Y-63382800D01*
G75*
G02*
X65520400Y-63532800I0J-150000D01*
G01*
X65520400Y-63832800D01*
G75*
G02*
X65370400Y-63982800I-150000J0D01*
G01*
X64570400Y-63982800D01*
G75*
G02*
X64420400Y-63832800I0J150000D01*
G01*
G37*
%TD*%
D12*
%TO.C,R8*%
X55527800Y-60553600D03*
X54152800Y-60553600D03*
%TD*%
%TO.C,R6*%
X66189000Y-68478400D03*
X67564000Y-68478400D03*
%TD*%
%TO.C,C3*%
X55527800Y-62026800D03*
X54152800Y-62026800D03*
%TD*%
%TO.C,C2*%
X66192400Y-67106800D03*
X67567400Y-67106800D03*
%TD*%
D13*
%TO.C,BZ3*%
X47517500Y-62201500D03*
X47517500Y-66401500D03*
D14*
X51117500Y-64801500D03*
X51117500Y-63801500D03*
%TD*%
D13*
%TO.C,BZ2*%
X73831000Y-66401500D03*
X73831000Y-62201500D03*
D14*
X70231000Y-63801500D03*
X70231000Y-64801500D03*
%TD*%
D15*
%TO.C,H4*%
X51117500Y-59055000D03*
%TD*%
%TO.C,H3*%
X51117500Y-69055000D03*
%TD*%
%TO.C,H2*%
X70117500Y-59055000D03*
%TD*%
%TO.C,H1*%
X70117500Y-69055000D03*
%TD*%
M02*
