%TF.GenerationSoftware,KiCad,Pcbnew,5.1.10*%
%TF.CreationDate,2021-07-14T14:56:21-07:00*%
%TF.ProjectId,exocam_charge_amp,65786f63-616d-45f6-9368-617267655f61,rev?*%
%TF.SameCoordinates,Original*%
%TF.FileFunction,Copper,L2,Bot*%
%TF.FilePolarity,Positive*%
%FSLAX46Y46*%
G04 Gerber Fmt 4.6, Leading zero omitted, Abs format (unit mm)*
G04 Created by KiCad (PCBNEW 5.1.10) date 2021-07-14 14:56:21*
%MOMM*%
%LPD*%
G01*
G04 APERTURE LIST*
%TA.AperFunction,SMDPad,CuDef*%
%ADD10R,0.900000X0.725000*%
%TD*%
%TA.AperFunction,SMDPad,CuDef*%
%ADD11R,0.725000X0.900000*%
%TD*%
%TA.AperFunction,SMDPad,CuDef*%
%ADD12C,2.000000*%
%TD*%
%TA.AperFunction,SMDPad,CuDef*%
%ADD13R,2.000000X2.000000*%
%TD*%
%TA.AperFunction,ComponentPad*%
%ADD14C,3.500000*%
%TD*%
%TA.AperFunction,ViaPad*%
%ADD15C,0.800000*%
%TD*%
%TA.AperFunction,Conductor*%
%ADD16C,0.250000*%
%TD*%
G04 APERTURE END LIST*
%TO.P,U1,4*%
%TO.N,UNAMP1*%
%TA.AperFunction,SMDPad,CuDef*%
G36*
G01*
X60948400Y-60322400D02*
X60948400Y-60622400D01*
G75*
G02*
X60798400Y-60772400I-150000J0D01*
G01*
X59998400Y-60772400D01*
G75*
G02*
X59848400Y-60622400I0J150000D01*
G01*
X59848400Y-60322400D01*
G75*
G02*
X59998400Y-60172400I150000J0D01*
G01*
X60798400Y-60172400D01*
G75*
G02*
X60948400Y-60322400I0J-150000D01*
G01*
G37*
%TD.AperFunction*%
%TO.P,U1,3*%
%TO.N,VGND*%
%TA.AperFunction,SMDPad,CuDef*%
G36*
G01*
X63948400Y-60322400D02*
X63948400Y-60622400D01*
G75*
G02*
X63798400Y-60772400I-150000J0D01*
G01*
X62998400Y-60772400D01*
G75*
G02*
X62848400Y-60622400I0J150000D01*
G01*
X62848400Y-60322400D01*
G75*
G02*
X62998400Y-60172400I150000J0D01*
G01*
X63798400Y-60172400D01*
G75*
G02*
X63948400Y-60322400I0J-150000D01*
G01*
G37*
%TD.AperFunction*%
%TO.P,U1,2*%
%TO.N,GND*%
%TA.AperFunction,SMDPad,CuDef*%
G36*
G01*
X63948400Y-59372400D02*
X63948400Y-59672400D01*
G75*
G02*
X63798400Y-59822400I-150000J0D01*
G01*
X62998400Y-59822400D01*
G75*
G02*
X62848400Y-59672400I0J150000D01*
G01*
X62848400Y-59372400D01*
G75*
G02*
X62998400Y-59222400I150000J0D01*
G01*
X63798400Y-59222400D01*
G75*
G02*
X63948400Y-59372400I0J-150000D01*
G01*
G37*
%TD.AperFunction*%
%TO.P,U1,5*%
%TO.N,+3V3*%
%TA.AperFunction,SMDPad,CuDef*%
G36*
G01*
X60948400Y-58422400D02*
X60948400Y-58722400D01*
G75*
G02*
X60798400Y-58872400I-150000J0D01*
G01*
X59998400Y-58872400D01*
G75*
G02*
X59848400Y-58722400I0J150000D01*
G01*
X59848400Y-58422400D01*
G75*
G02*
X59998400Y-58272400I150000J0D01*
G01*
X60798400Y-58272400D01*
G75*
G02*
X60948400Y-58422400I0J-150000D01*
G01*
G37*
%TD.AperFunction*%
%TO.P,U1,1*%
%TO.N,AMP1*%
%TA.AperFunction,SMDPad,CuDef*%
G36*
G01*
X63948400Y-58422400D02*
X63948400Y-58722400D01*
G75*
G02*
X63798400Y-58872400I-150000J0D01*
G01*
X62998400Y-58872400D01*
G75*
G02*
X62848400Y-58722400I0J150000D01*
G01*
X62848400Y-58422400D01*
G75*
G02*
X62998400Y-58272400I150000J0D01*
G01*
X63798400Y-58272400D01*
G75*
G02*
X63948400Y-58422400I0J-150000D01*
G01*
G37*
%TD.AperFunction*%
%TD*%
D10*
%TO.P,R7,2*%
%TO.N,UNAMP3*%
X48361600Y-63703200D03*
%TO.P,R7,1*%
%TO.N,VGND*%
X48361600Y-65078200D03*
%TD*%
%TO.P,R5,2*%
%TO.N,UNAMP2*%
X72694800Y-65074800D03*
%TO.P,R5,1*%
%TO.N,VGND*%
X72694800Y-63699800D03*
%TD*%
%TO.P,R4,2*%
%TO.N,UNAMP1*%
X55067200Y-58928000D03*
%TO.P,R4,1*%
%TO.N,VGND*%
X55067200Y-60303000D03*
%TD*%
D11*
%TO.P,R3,2*%
%TO.N,AMP1*%
X62738000Y-63754000D03*
%TO.P,R3,1*%
%TO.N,UNAMP1*%
X61363000Y-63754000D03*
%TD*%
%TO.P,R2,2*%
%TO.N,GND*%
X58264200Y-71272400D03*
%TO.P,R2,1*%
%TO.N,VGND*%
X59639200Y-71272400D03*
%TD*%
%TO.P,R1,2*%
%TO.N,VGND*%
X61417200Y-71272400D03*
%TO.P,R1,1*%
%TO.N,+3V3*%
X62792200Y-71272400D03*
%TD*%
%TO.P,C1,2*%
%TO.N,AMP1*%
X62738000Y-62128400D03*
%TO.P,C1,1*%
%TO.N,UNAMP1*%
X61363000Y-62128400D03*
%TD*%
D12*
%TO.P,BZ1,2*%
%TO.N,VGND*%
X57505600Y-60818400D03*
D13*
%TO.P,BZ1,1*%
%TO.N,UNAMP1*%
X57505600Y-58318400D03*
%TD*%
D14*
%TO.P,H4,1*%
%TO.N,N/C*%
X51117500Y-59055000D03*
%TD*%
%TO.P,H3,1*%
%TO.N,N/C*%
X51117500Y-69055000D03*
%TD*%
%TO.P,H2,1*%
%TO.N,N/C*%
X70117500Y-59055000D03*
%TD*%
%TO.P,H1,1*%
%TO.N,N/C*%
X70117500Y-69055000D03*
%TD*%
D15*
%TO.N,VGND*%
X49377600Y-64973200D03*
X71882000Y-63703200D03*
X66294000Y-65379600D03*
X57708800Y-62788800D03*
X52222400Y-65836800D03*
%TO.N,UNAMP1*%
X60299600Y-63398400D03*
%TO.N,UNAMP2*%
X71932800Y-65074800D03*
%TO.N,UNAMP3*%
X49276000Y-63703200D03*
%TO.N,AMP1*%
X65074800Y-60655200D03*
X63855600Y-62077600D03*
X61925200Y-64973200D03*
X59791600Y-66751200D03*
X58064400Y-67157600D03*
%TO.N,AMP3*%
X53848000Y-64414400D03*
X55016400Y-66090800D03*
%TO.N,+3V3*%
X64262000Y-70307200D03*
X61671200Y-57658000D03*
X56997600Y-72034400D03*
X53746400Y-66751200D03*
%TO.N,GND*%
X66243200Y-64363600D03*
X61976000Y-60248800D03*
X56880000Y-69764400D03*
%TD*%
D16*
%TO.N,VGND*%
X59639200Y-71272400D02*
X61417200Y-71272400D01*
X48361600Y-65078200D02*
X49272600Y-65078200D01*
X49272600Y-65078200D02*
X49377600Y-64973200D01*
X49377600Y-64973200D02*
X49377600Y-64973200D01*
X72694800Y-63699800D02*
X71882000Y-63703200D01*
X71882000Y-63703200D02*
X72037800Y-63699800D01*
X56990200Y-60303000D02*
X57505600Y-60818400D01*
X55067200Y-60303000D02*
X56990200Y-60303000D01*
X70205600Y-65379600D02*
X71882000Y-63703200D01*
X66294000Y-65379600D02*
X70205600Y-65379600D01*
X65895199Y-63638599D02*
X61417200Y-68116598D01*
X61417200Y-68116598D02*
X61417200Y-71272400D01*
X66968201Y-64015599D02*
X66591201Y-63638599D01*
X66968201Y-64705399D02*
X66968201Y-64015599D01*
X57708800Y-61021600D02*
X57505600Y-60818400D01*
X57708800Y-62788800D02*
X57708800Y-61021600D01*
X52222400Y-63147800D02*
X55067200Y-60303000D01*
X52222400Y-65836800D02*
X52222400Y-63147800D01*
X66591201Y-63638599D02*
X65895199Y-63638599D01*
X61417200Y-66144213D02*
X61417200Y-71272400D01*
X57505600Y-62232613D02*
X61417200Y-66144213D01*
X57505600Y-60818400D02*
X57505600Y-62232613D01*
X66968201Y-64705399D02*
X66294000Y-65379600D01*
X66968201Y-64042201D02*
X66968201Y-64705399D01*
X63398400Y-60472400D02*
X66968201Y-64042201D01*
%TO.N,UNAMP1*%
X61363000Y-62128400D02*
X61363000Y-63754000D01*
X61363000Y-61437000D02*
X60398400Y-60472400D01*
X61363000Y-62128400D02*
X61363000Y-61437000D01*
X59659600Y-60472400D02*
X57505600Y-58318400D01*
X60398400Y-60472400D02*
X59659600Y-60472400D01*
X56896000Y-58928000D02*
X57505600Y-58318400D01*
X55067200Y-58928000D02*
X56896000Y-58928000D01*
X61363000Y-63754000D02*
X60655200Y-63754000D01*
X60655200Y-63754000D02*
X60299600Y-63398400D01*
X60299600Y-63398400D02*
X60299600Y-63398400D01*
%TO.N,UNAMP2*%
X72694800Y-65074800D02*
X71932800Y-65074800D01*
X71932800Y-65074800D02*
X71932800Y-65074800D01*
%TO.N,UNAMP3*%
X48361600Y-63703200D02*
X49276000Y-63703200D01*
X49276000Y-63703200D02*
X49225200Y-63703200D01*
%TO.N,AMP1*%
X62738000Y-62128400D02*
X62738000Y-63754000D01*
X63398400Y-58572400D02*
X64719200Y-58572400D01*
X64719200Y-58572400D02*
X65074800Y-58928000D01*
X65074800Y-58928000D02*
X65074800Y-60655200D01*
X65074800Y-60655200D02*
X65074800Y-60655200D01*
X62788800Y-62077600D02*
X62738000Y-62128400D01*
X63855600Y-62077600D02*
X62788800Y-62077600D01*
X62738000Y-63754000D02*
X62738000Y-64160400D01*
X62738000Y-64160400D02*
X61925200Y-64973200D01*
X61925200Y-64973200D02*
X61976000Y-64922400D01*
X59791600Y-66751200D02*
X58470800Y-66751200D01*
X58470800Y-66751200D02*
X58064400Y-67157600D01*
X58064400Y-67157600D02*
X58064400Y-67157600D01*
%TO.N,AMP3*%
X53848000Y-64414400D02*
X53848000Y-65735200D01*
X53848000Y-65735200D02*
X54203600Y-66090800D01*
X54203600Y-66090800D02*
X55016400Y-66090800D01*
X55016400Y-66090800D02*
X55016400Y-66090800D01*
%TO.N,+3V3*%
X64262000Y-70307200D02*
X64262000Y-70916800D01*
X63906400Y-71272400D02*
X62792200Y-71272400D01*
X64262000Y-70916800D02*
X63906400Y-71272400D01*
X61671200Y-57658000D02*
X61061600Y-57658000D01*
X60398400Y-58321200D02*
X60398400Y-58572400D01*
X61061600Y-57658000D02*
X60398400Y-58321200D01*
X56997600Y-72034400D02*
X53746400Y-68783200D01*
X53746400Y-68783200D02*
X53746400Y-66751200D01*
X53746400Y-66751200D02*
X53746400Y-66751200D01*
%TO.N,GND*%
X58162600Y-71170800D02*
X58264200Y-71272400D01*
X65568999Y-65031599D02*
X65568999Y-70371801D01*
X66236998Y-64363600D02*
X65568999Y-65031599D01*
X66243200Y-64363600D02*
X66236998Y-64363600D01*
X59039201Y-72047401D02*
X58264200Y-71272400D01*
X63893399Y-72047401D02*
X59039201Y-72047401D01*
X65568999Y-70371801D02*
X63893399Y-72047401D01*
X62702400Y-59522400D02*
X63398400Y-59522400D01*
X61976000Y-60248800D02*
X62702400Y-59522400D01*
X58264200Y-71148600D02*
X56880000Y-69764400D01*
X58264200Y-71272400D02*
X58264200Y-71148600D01*
%TD*%
M02*
