%TF.GenerationSoftware,KiCad,Pcbnew,5.1.10*%
%TF.CreationDate,2021-07-14T14:56:21-07:00*%
%TF.ProjectId,exocam_charge_amp,65786f63-616d-45f6-9368-617267655f61,rev?*%
%TF.SameCoordinates,Original*%
%TF.FileFunction,Copper,L1,Top*%
%TF.FilePolarity,Positive*%
%FSLAX46Y46*%
G04 Gerber Fmt 4.6, Leading zero omitted, Abs format (unit mm)*
G04 Created by KiCad (PCBNEW 5.1.10) date 2021-07-14 14:56:21*
%MOMM*%
%LPD*%
G01*
G04 APERTURE LIST*
%TA.AperFunction,SMDPad,CuDef*%
%ADD10R,1.200000X1.800000*%
%TD*%
%TA.AperFunction,SMDPad,CuDef*%
%ADD11R,0.600000X1.550000*%
%TD*%
%TA.AperFunction,SMDPad,CuDef*%
%ADD12R,0.725000X0.900000*%
%TD*%
%TA.AperFunction,SMDPad,CuDef*%
%ADD13R,1.800000X1.200000*%
%TD*%
%TA.AperFunction,SMDPad,CuDef*%
%ADD14R,1.550000X0.600000*%
%TD*%
%TA.AperFunction,ComponentPad*%
%ADD15C,3.500000*%
%TD*%
%TA.AperFunction,ViaPad*%
%ADD16C,0.800000*%
%TD*%
%TA.AperFunction,Conductor*%
%ADD17C,0.250000*%
%TD*%
G04 APERTURE END LIST*
D10*
%TO.P,J1,9*%
%TO.N,Net-(J1-Pad9)*%
X65480000Y-72370500D03*
D11*
%TO.P,J1,8*%
%TO.N,+3V3*%
X63880000Y-68770500D03*
%TO.P,J1,7*%
%TO.N,UNAMP3*%
X62880000Y-68770500D03*
D10*
%TO.P,J1,9*%
%TO.N,Net-(J1-Pad9)*%
X55280000Y-72370500D03*
D11*
%TO.P,J1,6*%
%TO.N,AMP3*%
X61880000Y-68770500D03*
%TO.P,J1,5*%
%TO.N,UNAMP2*%
X60880000Y-68770500D03*
%TO.P,J1,4*%
%TO.N,AMP2*%
X59880000Y-68770500D03*
%TO.P,J1,3*%
%TO.N,UNAMP1*%
X58880000Y-68770500D03*
%TO.P,J1,2*%
%TO.N,AMP1*%
X57880000Y-68770500D03*
%TO.P,J1,1*%
%TO.N,GND*%
X56880000Y-68770500D03*
%TD*%
%TO.P,U3,4*%
%TO.N,UNAMP3*%
%TA.AperFunction,SMDPad,CuDef*%
G36*
G01*
X53938000Y-63329600D02*
X53938000Y-63629600D01*
G75*
G02*
X53788000Y-63779600I-150000J0D01*
G01*
X52988000Y-63779600D01*
G75*
G02*
X52838000Y-63629600I0J150000D01*
G01*
X52838000Y-63329600D01*
G75*
G02*
X52988000Y-63179600I150000J0D01*
G01*
X53788000Y-63179600D01*
G75*
G02*
X53938000Y-63329600I0J-150000D01*
G01*
G37*
%TD.AperFunction*%
%TO.P,U3,3*%
%TO.N,VGND*%
%TA.AperFunction,SMDPad,CuDef*%
G36*
G01*
X56938000Y-63329600D02*
X56938000Y-63629600D01*
G75*
G02*
X56788000Y-63779600I-150000J0D01*
G01*
X55988000Y-63779600D01*
G75*
G02*
X55838000Y-63629600I0J150000D01*
G01*
X55838000Y-63329600D01*
G75*
G02*
X55988000Y-63179600I150000J0D01*
G01*
X56788000Y-63179600D01*
G75*
G02*
X56938000Y-63329600I0J-150000D01*
G01*
G37*
%TD.AperFunction*%
%TO.P,U3,2*%
%TO.N,GND*%
%TA.AperFunction,SMDPad,CuDef*%
G36*
G01*
X56938000Y-64279600D02*
X56938000Y-64579600D01*
G75*
G02*
X56788000Y-64729600I-150000J0D01*
G01*
X55988000Y-64729600D01*
G75*
G02*
X55838000Y-64579600I0J150000D01*
G01*
X55838000Y-64279600D01*
G75*
G02*
X55988000Y-64129600I150000J0D01*
G01*
X56788000Y-64129600D01*
G75*
G02*
X56938000Y-64279600I0J-150000D01*
G01*
G37*
%TD.AperFunction*%
%TO.P,U3,5*%
%TO.N,+3V3*%
%TA.AperFunction,SMDPad,CuDef*%
G36*
G01*
X53938000Y-65229600D02*
X53938000Y-65529600D01*
G75*
G02*
X53788000Y-65679600I-150000J0D01*
G01*
X52988000Y-65679600D01*
G75*
G02*
X52838000Y-65529600I0J150000D01*
G01*
X52838000Y-65229600D01*
G75*
G02*
X52988000Y-65079600I150000J0D01*
G01*
X53788000Y-65079600D01*
G75*
G02*
X53938000Y-65229600I0J-150000D01*
G01*
G37*
%TD.AperFunction*%
%TO.P,U3,1*%
%TO.N,AMP3*%
%TA.AperFunction,SMDPad,CuDef*%
G36*
G01*
X56938000Y-65229600D02*
X56938000Y-65529600D01*
G75*
G02*
X56788000Y-65679600I-150000J0D01*
G01*
X55988000Y-65679600D01*
G75*
G02*
X55838000Y-65529600I0J150000D01*
G01*
X55838000Y-65229600D01*
G75*
G02*
X55988000Y-65079600I150000J0D01*
G01*
X56788000Y-65079600D01*
G75*
G02*
X56938000Y-65229600I0J-150000D01*
G01*
G37*
%TD.AperFunction*%
%TD*%
%TO.P,U2,4*%
%TO.N,UNAMP2*%
%TA.AperFunction,SMDPad,CuDef*%
G36*
G01*
X67420400Y-65732800D02*
X67420400Y-65432800D01*
G75*
G02*
X67570400Y-65282800I150000J0D01*
G01*
X68370400Y-65282800D01*
G75*
G02*
X68520400Y-65432800I0J-150000D01*
G01*
X68520400Y-65732800D01*
G75*
G02*
X68370400Y-65882800I-150000J0D01*
G01*
X67570400Y-65882800D01*
G75*
G02*
X67420400Y-65732800I0J150000D01*
G01*
G37*
%TD.AperFunction*%
%TO.P,U2,3*%
%TO.N,VGND*%
%TA.AperFunction,SMDPad,CuDef*%
G36*
G01*
X64420400Y-65732800D02*
X64420400Y-65432800D01*
G75*
G02*
X64570400Y-65282800I150000J0D01*
G01*
X65370400Y-65282800D01*
G75*
G02*
X65520400Y-65432800I0J-150000D01*
G01*
X65520400Y-65732800D01*
G75*
G02*
X65370400Y-65882800I-150000J0D01*
G01*
X64570400Y-65882800D01*
G75*
G02*
X64420400Y-65732800I0J150000D01*
G01*
G37*
%TD.AperFunction*%
%TO.P,U2,2*%
%TO.N,GND*%
%TA.AperFunction,SMDPad,CuDef*%
G36*
G01*
X64420400Y-64782800D02*
X64420400Y-64482800D01*
G75*
G02*
X64570400Y-64332800I150000J0D01*
G01*
X65370400Y-64332800D01*
G75*
G02*
X65520400Y-64482800I0J-150000D01*
G01*
X65520400Y-64782800D01*
G75*
G02*
X65370400Y-64932800I-150000J0D01*
G01*
X64570400Y-64932800D01*
G75*
G02*
X64420400Y-64782800I0J150000D01*
G01*
G37*
%TD.AperFunction*%
%TO.P,U2,5*%
%TO.N,+3V3*%
%TA.AperFunction,SMDPad,CuDef*%
G36*
G01*
X67420400Y-63832800D02*
X67420400Y-63532800D01*
G75*
G02*
X67570400Y-63382800I150000J0D01*
G01*
X68370400Y-63382800D01*
G75*
G02*
X68520400Y-63532800I0J-150000D01*
G01*
X68520400Y-63832800D01*
G75*
G02*
X68370400Y-63982800I-150000J0D01*
G01*
X67570400Y-63982800D01*
G75*
G02*
X67420400Y-63832800I0J150000D01*
G01*
G37*
%TD.AperFunction*%
%TO.P,U2,1*%
%TO.N,AMP2*%
%TA.AperFunction,SMDPad,CuDef*%
G36*
G01*
X64420400Y-63832800D02*
X64420400Y-63532800D01*
G75*
G02*
X64570400Y-63382800I150000J0D01*
G01*
X65370400Y-63382800D01*
G75*
G02*
X65520400Y-63532800I0J-150000D01*
G01*
X65520400Y-63832800D01*
G75*
G02*
X65370400Y-63982800I-150000J0D01*
G01*
X64570400Y-63982800D01*
G75*
G02*
X64420400Y-63832800I0J150000D01*
G01*
G37*
%TD.AperFunction*%
%TD*%
D12*
%TO.P,R8,2*%
%TO.N,AMP3*%
X55527800Y-60553600D03*
%TO.P,R8,1*%
%TO.N,UNAMP3*%
X54152800Y-60553600D03*
%TD*%
%TO.P,R6,2*%
%TO.N,AMP2*%
X66189000Y-68478400D03*
%TO.P,R6,1*%
%TO.N,UNAMP2*%
X67564000Y-68478400D03*
%TD*%
%TO.P,C3,2*%
%TO.N,AMP3*%
X55527800Y-62026800D03*
%TO.P,C3,1*%
%TO.N,UNAMP3*%
X54152800Y-62026800D03*
%TD*%
%TO.P,C2,2*%
%TO.N,AMP2*%
X66192400Y-67106800D03*
%TO.P,C2,1*%
%TO.N,UNAMP2*%
X67567400Y-67106800D03*
%TD*%
D13*
%TO.P,BZ3,3*%
%TO.N,N/C*%
X47517500Y-62201500D03*
X47517500Y-66401500D03*
D14*
%TO.P,BZ3,2*%
%TO.N,VGND*%
X51117500Y-64801500D03*
%TO.P,BZ3,1*%
%TO.N,UNAMP3*%
X51117500Y-63801500D03*
%TD*%
D13*
%TO.P,BZ2,3*%
%TO.N,N/C*%
X73831000Y-66401500D03*
X73831000Y-62201500D03*
D14*
%TO.P,BZ2,2*%
%TO.N,VGND*%
X70231000Y-63801500D03*
%TO.P,BZ2,1*%
%TO.N,UNAMP2*%
X70231000Y-64801500D03*
%TD*%
D15*
%TO.P,H4,1*%
%TO.N,N/C*%
X51117500Y-59055000D03*
%TD*%
%TO.P,H3,1*%
%TO.N,N/C*%
X51117500Y-69055000D03*
%TD*%
%TO.P,H2,1*%
%TO.N,N/C*%
X70117500Y-59055000D03*
%TD*%
%TO.P,H1,1*%
%TO.N,N/C*%
X70117500Y-69055000D03*
%TD*%
D16*
%TO.N,VGND*%
X49377600Y-64973200D03*
X71882000Y-63703200D03*
X66294000Y-65379600D03*
X57708800Y-62788800D03*
X52222400Y-65836800D03*
%TO.N,UNAMP1*%
X60299600Y-63398400D03*
%TO.N,UNAMP2*%
X71932800Y-65074800D03*
%TO.N,UNAMP3*%
X49276000Y-63703200D03*
%TO.N,AMP1*%
X65074800Y-60655200D03*
X63855600Y-62077600D03*
X61925200Y-64973200D03*
X59791600Y-66751200D03*
X58064400Y-67157600D03*
%TO.N,AMP3*%
X53848000Y-64414400D03*
X55016400Y-66090800D03*
%TO.N,+3V3*%
X64262000Y-70307200D03*
X61671200Y-57658000D03*
X56997600Y-72034400D03*
X53746400Y-66751200D03*
%TO.N,GND*%
X66243200Y-64363600D03*
X61976000Y-60248800D03*
X56880000Y-69764400D03*
%TD*%
D17*
%TO.N,VGND*%
X50945800Y-64973200D02*
X51117500Y-64801500D01*
X49377600Y-64973200D02*
X50945800Y-64973200D01*
X70329300Y-63703200D02*
X70231000Y-63801500D01*
X71882000Y-63703200D02*
X70329300Y-63703200D01*
X64970400Y-65582800D02*
X66090800Y-65582800D01*
X66090800Y-65582800D02*
X66294000Y-65379600D01*
X66294000Y-65379600D02*
X66294000Y-65379600D01*
X56388000Y-63479600D02*
X57018000Y-63479600D01*
X57018000Y-63479600D02*
X57708800Y-62788800D01*
X57708800Y-62788800D02*
X57708800Y-62788800D01*
X51117500Y-64801500D02*
X51187100Y-64801500D01*
X51187100Y-64801500D02*
X52222400Y-65836800D01*
X52222400Y-65836800D02*
X52222400Y-65836800D01*
%TO.N,UNAMP1*%
X58880000Y-64818000D02*
X58880000Y-68770500D01*
X60299600Y-63398400D02*
X58880000Y-64818000D01*
%TO.N,UNAMP2*%
X70504300Y-65074800D02*
X70231000Y-64801500D01*
X71932800Y-65074800D02*
X70504300Y-65074800D01*
X67567400Y-68475000D02*
X67564000Y-68478400D01*
X67567400Y-67106800D02*
X67567400Y-68475000D01*
X67567400Y-65985800D02*
X67970400Y-65582800D01*
X67567400Y-67106800D02*
X67567400Y-65985800D01*
X69449700Y-65582800D02*
X70231000Y-64801500D01*
X67970400Y-65582800D02*
X69449700Y-65582800D01*
X65895297Y-69582199D02*
X65278000Y-68964902D01*
X66460201Y-69582199D02*
X65895297Y-69582199D01*
X67564000Y-68478400D02*
X66460201Y-69582199D01*
X65278000Y-67112168D02*
X63799432Y-65633600D01*
X65278000Y-68964902D02*
X65278000Y-67112168D01*
X60880000Y-68110498D02*
X60880000Y-68770500D01*
X63356898Y-65633600D02*
X60880000Y-68110498D01*
X63799432Y-65633600D02*
X63356898Y-65633600D01*
%TO.N,UNAMP3*%
X51019200Y-63703200D02*
X51117500Y-63801500D01*
X49276000Y-63703200D02*
X51019200Y-63703200D01*
X54152800Y-60553600D02*
X54152800Y-62026800D01*
X54152800Y-62714800D02*
X53388000Y-63479600D01*
X54152800Y-62026800D02*
X54152800Y-62714800D01*
X51439400Y-63479600D02*
X51117500Y-63801500D01*
X53388000Y-63479600D02*
X51439400Y-63479600D01*
X56345598Y-70939410D02*
X55372000Y-69965812D01*
X61372500Y-70939410D02*
X56345598Y-70939410D01*
X62880000Y-69431910D02*
X61372500Y-70939410D01*
X62880000Y-68770500D02*
X62880000Y-69431910D01*
X48652599Y-64326601D02*
X49276000Y-63703200D01*
X48652599Y-65321201D02*
X48652599Y-64326601D01*
X50311397Y-66979999D02*
X48652599Y-65321201D01*
X55372000Y-69951600D02*
X52400399Y-66979999D01*
X55372000Y-69965812D02*
X55372000Y-69951600D01*
X52400399Y-66979999D02*
X50311397Y-66979999D01*
%TO.N,AMP1*%
X65074800Y-60655200D02*
X64008000Y-61722000D01*
X64008000Y-61722000D02*
X64008000Y-61925200D01*
X64008000Y-61925200D02*
X63855600Y-62077600D01*
X63855600Y-62077600D02*
X63855600Y-62077600D01*
X61925200Y-64973200D02*
X60096400Y-66802000D01*
X60096400Y-66802000D02*
X59791600Y-66751200D01*
X59791600Y-66751200D02*
X59740800Y-66802000D01*
X58064400Y-68586100D02*
X57880000Y-68770500D01*
X58064400Y-67157600D02*
X58064400Y-68586100D01*
%TO.N,AMP2*%
X66192400Y-68475000D02*
X66189000Y-68478400D01*
X66192400Y-67106800D02*
X66192400Y-68475000D01*
X64970400Y-63682800D02*
X64420400Y-63682800D01*
X59880000Y-68110498D02*
X59880000Y-68770500D01*
X64307698Y-63682800D02*
X59880000Y-68110498D01*
X64970400Y-63682800D02*
X64307698Y-63682800D01*
X65270400Y-63382800D02*
X64970400Y-63682800D01*
X66335402Y-63382800D02*
X65270400Y-63382800D01*
X67019001Y-64066399D02*
X66335402Y-63382800D01*
X67019001Y-66280199D02*
X67019001Y-64066399D01*
X66192400Y-67106800D02*
X67019001Y-66280199D01*
%TO.N,AMP3*%
X55527800Y-60553600D02*
X55527800Y-62026800D01*
X55527800Y-60553600D02*
X55527800Y-60245400D01*
X55527800Y-62026800D02*
X55527800Y-62226600D01*
X55527800Y-62114300D02*
X54406800Y-63235300D01*
X55527800Y-62026800D02*
X55527800Y-62114300D01*
X54406800Y-63235300D02*
X54406800Y-64008000D01*
X54406800Y-64008000D02*
X54102000Y-64312800D01*
X54051200Y-64312800D02*
X53848000Y-64414400D01*
X54102000Y-64312800D02*
X54051200Y-64312800D01*
X53848000Y-64414400D02*
X53898800Y-64465200D01*
X55676800Y-66090800D02*
X56388000Y-65379600D01*
X55016400Y-66090800D02*
X55676800Y-66090800D01*
X61880000Y-69795500D02*
X61723900Y-69951600D01*
X61880000Y-68770500D02*
X61880000Y-69795500D01*
X61723900Y-69951600D02*
X57912000Y-69951600D01*
X56154999Y-65612601D02*
X56388000Y-65379600D01*
X56154999Y-70112401D02*
X56154999Y-65612601D01*
X57374199Y-70489401D02*
X56531999Y-70489401D01*
X56531999Y-70489401D02*
X56154999Y-70112401D01*
X57912000Y-69951600D02*
X57374199Y-70489401D01*
%TO.N,+3V3*%
X63880000Y-68770500D02*
X63880000Y-69925200D01*
X63880000Y-69925200D02*
X64262000Y-70307200D01*
X64262000Y-70307200D02*
X64262000Y-70307200D01*
X63880000Y-68073200D02*
X63880000Y-68770500D01*
X67970400Y-63682800D02*
X67970400Y-61315600D01*
X67970400Y-61315600D02*
X64312800Y-57658000D01*
X64312800Y-57658000D02*
X61671200Y-57658000D01*
X61671200Y-57658000D02*
X61671200Y-57658000D01*
X53388000Y-65257832D02*
X53388000Y-65379600D01*
X56527399Y-62801801D02*
X55844031Y-62801801D01*
X61671200Y-57658000D02*
X56527399Y-62801801D01*
X55844031Y-62801801D02*
X55118000Y-63527832D01*
X55118000Y-63527832D02*
X55118000Y-64719200D01*
X54457600Y-65379600D02*
X53388000Y-65379600D01*
X55118000Y-64719200D02*
X54457600Y-65379600D01*
X63880000Y-69795500D02*
X63880000Y-68770500D01*
X64262000Y-70307200D02*
X62738000Y-71831200D01*
X62738000Y-71831200D02*
X57658000Y-71831200D01*
X57658000Y-71831200D02*
X57200800Y-71831200D01*
X57200800Y-71831200D02*
X56997600Y-72034400D01*
X56997600Y-72034400D02*
X56997600Y-72034400D01*
X53746400Y-65738000D02*
X53388000Y-65379600D01*
X53746400Y-66751200D02*
X53746400Y-65738000D01*
%TO.N,GND*%
X64970400Y-64632800D02*
X65974000Y-64632800D01*
X65974000Y-64632800D02*
X66090800Y-64516000D01*
X66090800Y-64516000D02*
X66243200Y-64363600D01*
X66243200Y-64363600D02*
X66243200Y-64363600D01*
X56880000Y-68110498D02*
X56880000Y-68770500D01*
X56938000Y-64429600D02*
X57263010Y-64754610D01*
X57263010Y-67727488D02*
X56880000Y-68110498D01*
X57263010Y-64754610D02*
X57263010Y-67727488D01*
X56388000Y-64429600D02*
X56938000Y-64429600D01*
X61976000Y-60248800D02*
X61976000Y-60248800D01*
X57795200Y-64429600D02*
X56388000Y-64429600D01*
X61976000Y-60248800D02*
X57795200Y-64429600D01*
X56880000Y-68770500D02*
X56880000Y-69764400D01*
X56880000Y-69764400D02*
X56880000Y-69764400D01*
X56880000Y-69764400D02*
X56880000Y-69764400D01*
%TD*%
M02*
