M48
; DRILL file {KiCad 5.1.10} date Wed Jul 14 14:56:25 2021
; FORMAT={-:-/ absolute / inch / decimal}
; #@! TF.CreationDate,2021-07-14T14:56:25-07:00
; #@! TF.GenerationSoftware,Kicad,Pcbnew,5.1.10
; #@! TF.FileFunction,Plated,1,2,PTH
FMAT,2
INCH
T1C0.0157
T2C0.1181
%
G90
G05
T1
X1.94Y-2.508
X1.944Y-2.558
X2.056Y-2.592
X2.116Y-2.628
X2.12Y-2.536
X2.166Y-2.602
X2.2394Y-2.7466
X2.244Y-2.836
X2.272Y-2.472
X2.286Y-2.644
X2.354Y-2.628
X2.374Y-2.496
X2.428Y-2.27
X2.438Y-2.558
X2.44Y-2.372
X2.514Y-2.444
X2.53Y-2.768
X2.562Y-2.388
X2.608Y-2.534
X2.61Y-2.574
X2.83Y-2.508
X2.832Y-2.562
T2
X2.0125Y-2.325
X2.0125Y-2.7187
X2.7605Y-2.325
X2.7605Y-2.7187
T0
M30
