%TF.GenerationSoftware,KiCad,Pcbnew,5.1.10*%
%TF.CreationDate,2021-07-28T23:02:06-07:00*%
%TF.ProjectId,exocam_charge_amp,65786f63-616d-45f6-9368-617267655f61,rev?*%
%TF.SameCoordinates,Original*%
%TF.FileFunction,Copper,L2,Bot*%
%TF.FilePolarity,Positive*%
%FSLAX46Y46*%
G04 Gerber Fmt 4.6, Leading zero omitted, Abs format (unit mm)*
G04 Created by KiCad (PCBNEW 5.1.10) date 2021-07-28 23:02:06*
%MOMM*%
%LPD*%
G01*
G04 APERTURE LIST*
%TA.AperFunction,SMDPad,CuDef*%
%ADD10R,0.725000X0.900000*%
%TD*%
%TA.AperFunction,SMDPad,CuDef*%
%ADD11R,0.900000X0.725000*%
%TD*%
%TA.AperFunction,SMDPad,CuDef*%
%ADD12C,2.000000*%
%TD*%
%TA.AperFunction,SMDPad,CuDef*%
%ADD13R,2.000000X2.000000*%
%TD*%
%TA.AperFunction,ComponentPad*%
%ADD14C,3.500000*%
%TD*%
%TA.AperFunction,ViaPad*%
%ADD15C,0.800000*%
%TD*%
%TA.AperFunction,Conductor*%
%ADD16C,0.250000*%
%TD*%
G04 APERTURE END LIST*
D10*
%TO.P,R7,2*%
%TO.N,UNAMP3*%
X59283600Y-57658000D03*
%TO.P,R7,1*%
%TO.N,VGND*%
X57908600Y-57658000D03*
%TD*%
%TO.P,R5,2*%
%TO.N,UNAMP2*%
X62970000Y-57734200D03*
%TO.P,R5,1*%
%TO.N,VGND*%
X61595000Y-57734200D03*
%TD*%
D11*
%TO.P,R4,2*%
%TO.N,UNAMP1*%
X49682400Y-65608200D03*
%TO.P,R4,1*%
%TO.N,VGND*%
X49682400Y-64233200D03*
%TD*%
D10*
%TO.P,R2,2*%
%TO.N,GND*%
X58864500Y-71691500D03*
%TO.P,R2,1*%
%TO.N,VGND*%
X60239500Y-71691500D03*
%TD*%
%TO.P,R1,2*%
%TO.N,VGND*%
X61722000Y-71691500D03*
%TO.P,R1,1*%
%TO.N,+3V3*%
X63097000Y-71691500D03*
%TD*%
D12*
%TO.P,BZ1,2*%
%TO.N,VGND*%
X47472600Y-63195200D03*
D13*
%TO.P,BZ1,1*%
%TO.N,UNAMP1*%
X47472600Y-65695200D03*
%TD*%
D14*
%TO.P,H1,1*%
%TO.N,N/C*%
X70117500Y-69055000D03*
%TD*%
%TO.P,H4,1*%
%TO.N,N/C*%
X51117500Y-59055000D03*
%TD*%
%TO.P,H3,1*%
%TO.N,N/C*%
X51117500Y-69055000D03*
%TD*%
%TO.P,H2,1*%
%TO.N,N/C*%
X70117500Y-59055000D03*
%TD*%
D15*
%TO.N,VGND*%
X53619400Y-63500000D03*
X59994800Y-66395600D03*
X73685400Y-62712600D03*
X58724800Y-62052200D03*
X58547000Y-59385200D03*
X61391800Y-58953400D03*
%TO.N,UNAMP1*%
X50571400Y-65405000D03*
X58877200Y-67208400D03*
%TO.N,UNAMP2*%
X62509400Y-59080400D03*
X70686750Y-63219150D03*
X70688200Y-65049400D03*
%TO.N,UNAMP3*%
X59715400Y-59055000D03*
X63901400Y-64942800D03*
X63144400Y-67005200D03*
%TO.N,AMP1*%
X58902600Y-69977000D03*
X54965600Y-67767200D03*
%TO.N,AMP3*%
X58750200Y-63601600D03*
X61737801Y-67065599D03*
%TO.N,+3V3*%
X63531750Y-70643750D03*
%TO.N,GND*%
X58166000Y-70675500D03*
X68351400Y-64033400D03*
X53771800Y-64846200D03*
X60706000Y-64490600D03*
%TD*%
D16*
%TO.N,VGND*%
X61722000Y-71691500D02*
X60239500Y-71691500D01*
X50415600Y-63500000D02*
X49682400Y-64233200D01*
X53619400Y-63500000D02*
X50415600Y-63500000D01*
X60239500Y-71691500D02*
X60239500Y-66691100D01*
X60239500Y-66691100D02*
X59994800Y-66395600D01*
X59994800Y-66395600D02*
X59994800Y-66446400D01*
X53046799Y-64072601D02*
X53619400Y-63500000D01*
X59994800Y-66395600D02*
X54248198Y-66395600D01*
X74117200Y-63627000D02*
X74117200Y-63144400D01*
X74117200Y-63144400D02*
X73685400Y-62712600D01*
X73685400Y-62712600D02*
X73685400Y-62712600D01*
X48510600Y-64233200D02*
X49682400Y-64233200D01*
X47472600Y-63195200D02*
X48510600Y-64233200D01*
X58724800Y-62052200D02*
X58724800Y-62001400D01*
X57908600Y-57658000D02*
X57908600Y-58746800D01*
X57908600Y-58746800D02*
X58547000Y-59385200D01*
X58547000Y-59385200D02*
X58547000Y-59385200D01*
X61595000Y-57734200D02*
X61595000Y-58750200D01*
X61595000Y-58750200D02*
X61391800Y-58953400D01*
X61391800Y-58953400D02*
X61391800Y-58953400D01*
X60743799Y-56882999D02*
X61595000Y-57734200D01*
X57983601Y-56882999D02*
X60743799Y-56882999D01*
X57908600Y-56958000D02*
X57983601Y-56882999D01*
X57908600Y-57658000D02*
X57908600Y-56958000D01*
X53046799Y-65194201D02*
X54248198Y-66395600D01*
X53046799Y-64072601D02*
X53046799Y-65194201D01*
X74117200Y-66116200D02*
X74117200Y-65100200D01*
X73837800Y-66395600D02*
X74117200Y-66116200D01*
X74117200Y-65100200D02*
X74117200Y-63627000D01*
X74117200Y-65303400D02*
X74117200Y-65100200D01*
X69705898Y-66395600D02*
X73837800Y-66395600D01*
X63634997Y-72466501D02*
X69705898Y-66395600D01*
X61014501Y-72466501D02*
X63634997Y-72466501D01*
X60239500Y-71691500D02*
X61014501Y-72466501D01*
X53619400Y-63500000D02*
X56184800Y-63500000D01*
X56184800Y-63500000D02*
X57632600Y-62052200D01*
X57632600Y-62052200D02*
X58724800Y-62052200D01*
%TO.N,UNAMP1*%
X49682400Y-65608200D02*
X50368200Y-65608200D01*
X50368200Y-65608200D02*
X50571400Y-65405000D01*
X50571400Y-65405000D02*
X50571400Y-65405000D01*
X49595400Y-65695200D02*
X49682400Y-65608200D01*
X47472600Y-65695200D02*
X49595400Y-65695200D01*
X52012010Y-66845610D02*
X50571400Y-65405000D01*
X58877200Y-67056000D02*
X58666810Y-66845610D01*
X58666810Y-66845610D02*
X52012010Y-66845610D01*
X58877200Y-67208400D02*
X58877200Y-67056000D01*
%TO.N,UNAMP2*%
X62970000Y-57734200D02*
X62970000Y-58619800D01*
X62970000Y-58619800D02*
X62509400Y-59080400D01*
X62509400Y-59080400D02*
X62509400Y-59080400D01*
X70686750Y-63219150D02*
X70686750Y-64568250D01*
X70686750Y-64568250D02*
X70688200Y-65049400D01*
X70688200Y-65049400D02*
X70686750Y-65200350D01*
%TO.N,UNAMP3*%
X59283600Y-57658000D02*
X59283600Y-58623200D01*
X59283600Y-58623200D02*
X59715400Y-59055000D01*
X59715400Y-59055000D02*
X59715400Y-59055000D01*
X60465801Y-59805401D02*
X59715400Y-59055000D01*
X65196403Y-59805401D02*
X60465801Y-59805401D01*
X69076401Y-63685399D02*
X65196403Y-59805401D01*
X69076401Y-64381401D02*
X69076401Y-63685399D01*
X68515002Y-64942800D02*
X69076401Y-64381401D01*
X63901400Y-64942800D02*
X68515002Y-64942800D01*
X63901400Y-64942800D02*
X63901400Y-66248200D01*
X63901400Y-66248200D02*
X63144400Y-67005200D01*
X63144400Y-67005200D02*
X63144400Y-67005200D01*
%TO.N,AMP1*%
X58502601Y-69577001D02*
X56775401Y-69577001D01*
X58902600Y-69977000D02*
X58502601Y-69577001D01*
X56775401Y-69577001D02*
X54965600Y-67767200D01*
X54965600Y-67767200D02*
X54965600Y-67767200D01*
%TO.N,AMP3*%
X58750200Y-63601600D02*
X58089800Y-64262000D01*
X58089800Y-64262000D02*
X58089800Y-64617600D01*
X58089800Y-64617600D02*
X58928000Y-65455800D01*
X60128002Y-65455800D02*
X61737801Y-67065599D01*
X58928000Y-65455800D02*
X60128002Y-65455800D01*
X61737801Y-67065599D02*
X61747400Y-67075198D01*
%TO.N,+3V3*%
X63097000Y-71691500D02*
X63097000Y-71078500D01*
X63097000Y-71078500D02*
X63531750Y-70643750D01*
X63531750Y-70643750D02*
X63627000Y-70548500D01*
%TO.N,GND*%
X58864500Y-71691500D02*
X58864500Y-71374000D01*
X58864500Y-71374000D02*
X58166000Y-70675500D01*
X58166000Y-70675500D02*
X58166000Y-70675500D01*
X53771800Y-64846200D02*
X53746400Y-64871600D01*
X67945000Y-63627000D02*
X68351400Y-64033400D01*
X60960000Y-63627000D02*
X67945000Y-63627000D01*
X60110201Y-62777201D02*
X60960000Y-63627000D01*
X55653602Y-64846200D02*
X57722601Y-62777201D01*
X53771800Y-64846200D02*
X55653602Y-64846200D01*
X57722601Y-62777201D02*
X60110201Y-62777201D01*
X60706000Y-63881000D02*
X60960000Y-63627000D01*
X60706000Y-64490600D02*
X60706000Y-63881000D01*
%TD*%
M02*
