%TF.GenerationSoftware,KiCad,Pcbnew,5.1.10*%
%TF.CreationDate,2021-07-28T16:24:32-07:00*%
%TF.ProjectId,dogbone,646f6762-6f6e-4652-9e6b-696361645f70,rev?*%
%TF.SameCoordinates,Original*%
%TF.FileFunction,Legend,Top*%
%TF.FilePolarity,Positive*%
%FSLAX46Y46*%
G04 Gerber Fmt 4.6, Leading zero omitted, Abs format (unit mm)*
G04 Created by KiCad (PCBNEW 5.1.10) date 2021-07-28 16:24:32*
%MOMM*%
%LPD*%
G01*
G04 APERTURE LIST*
%ADD10C,0.300000*%
%ADD11C,0.150000*%
G04 APERTURE END LIST*
D10*
X63081885Y-78736000D02*
X63796171Y-78736000D01*
X62939028Y-79164571D02*
X63439028Y-77664571D01*
X63939028Y-79164571D01*
X65153314Y-79164571D02*
X64439028Y-79164571D01*
X64439028Y-77664571D01*
X65439028Y-77664571D02*
X66296171Y-77664571D01*
X65867600Y-79164571D02*
X65867600Y-77664571D01*
%TO.C,R3*%
D11*
X58443833Y-88971380D02*
X58110500Y-88495190D01*
X57872404Y-88971380D02*
X57872404Y-87971380D01*
X58253357Y-87971380D01*
X58348595Y-88019000D01*
X58396214Y-88066619D01*
X58443833Y-88161857D01*
X58443833Y-88304714D01*
X58396214Y-88399952D01*
X58348595Y-88447571D01*
X58253357Y-88495190D01*
X57872404Y-88495190D01*
X58777166Y-87971380D02*
X59396214Y-87971380D01*
X59062880Y-88352333D01*
X59205738Y-88352333D01*
X59300976Y-88399952D01*
X59348595Y-88447571D01*
X59396214Y-88542809D01*
X59396214Y-88780904D01*
X59348595Y-88876142D01*
X59300976Y-88923761D01*
X59205738Y-88971380D01*
X58920023Y-88971380D01*
X58824785Y-88923761D01*
X58777166Y-88876142D01*
%TO.C,R2*%
X52157333Y-95067380D02*
X51824000Y-94591190D01*
X51585904Y-95067380D02*
X51585904Y-94067380D01*
X51966857Y-94067380D01*
X52062095Y-94115000D01*
X52109714Y-94162619D01*
X52157333Y-94257857D01*
X52157333Y-94400714D01*
X52109714Y-94495952D01*
X52062095Y-94543571D01*
X51966857Y-94591190D01*
X51585904Y-94591190D01*
X52538285Y-94162619D02*
X52585904Y-94115000D01*
X52681142Y-94067380D01*
X52919238Y-94067380D01*
X53014476Y-94115000D01*
X53062095Y-94162619D01*
X53109714Y-94257857D01*
X53109714Y-94353095D01*
X53062095Y-94495952D01*
X52490666Y-95067380D01*
X53109714Y-95067380D01*
%TO.C,R1*%
X47137580Y-98655166D02*
X46661390Y-98988500D01*
X47137580Y-99226595D02*
X46137580Y-99226595D01*
X46137580Y-98845642D01*
X46185200Y-98750404D01*
X46232819Y-98702785D01*
X46328057Y-98655166D01*
X46470914Y-98655166D01*
X46566152Y-98702785D01*
X46613771Y-98750404D01*
X46661390Y-98845642D01*
X46661390Y-99226595D01*
X47137580Y-97702785D02*
X47137580Y-98274214D01*
X47137580Y-97988500D02*
X46137580Y-97988500D01*
X46280438Y-98083738D01*
X46375676Y-98178976D01*
X46423295Y-98274214D01*
%TO.C,BZ1*%
X55777047Y-84121571D02*
X55919904Y-84169190D01*
X55967523Y-84216809D01*
X56015142Y-84312047D01*
X56015142Y-84454904D01*
X55967523Y-84550142D01*
X55919904Y-84597761D01*
X55824666Y-84645380D01*
X55443714Y-84645380D01*
X55443714Y-83645380D01*
X55777047Y-83645380D01*
X55872285Y-83693000D01*
X55919904Y-83740619D01*
X55967523Y-83835857D01*
X55967523Y-83931095D01*
X55919904Y-84026333D01*
X55872285Y-84073952D01*
X55777047Y-84121571D01*
X55443714Y-84121571D01*
X56348476Y-83645380D02*
X57015142Y-83645380D01*
X56348476Y-84645380D01*
X57015142Y-84645380D01*
X57919904Y-84645380D02*
X57348476Y-84645380D01*
X57634190Y-84645380D02*
X57634190Y-83645380D01*
X57538952Y-83788238D01*
X57443714Y-83883476D01*
X57348476Y-83931095D01*
%TO.C,H3*%
X65087595Y-93670380D02*
X65087595Y-92670380D01*
X65087595Y-93146571D02*
X65659023Y-93146571D01*
X65659023Y-93670380D02*
X65659023Y-92670380D01*
X66039976Y-92670380D02*
X66659023Y-92670380D01*
X66325690Y-93051333D01*
X66468547Y-93051333D01*
X66563785Y-93098952D01*
X66611404Y-93146571D01*
X66659023Y-93241809D01*
X66659023Y-93479904D01*
X66611404Y-93575142D01*
X66563785Y-93622761D01*
X66468547Y-93670380D01*
X66182833Y-93670380D01*
X66087595Y-93622761D01*
X66039976Y-93575142D01*
%TO.C,H2*%
X46545595Y-97480380D02*
X46545595Y-96480380D01*
X46545595Y-96956571D02*
X47117023Y-96956571D01*
X47117023Y-97480380D02*
X47117023Y-96480380D01*
X47545595Y-96575619D02*
X47593214Y-96528000D01*
X47688452Y-96480380D01*
X47926547Y-96480380D01*
X48021785Y-96528000D01*
X48069404Y-96575619D01*
X48117023Y-96670857D01*
X48117023Y-96766095D01*
X48069404Y-96908952D01*
X47497976Y-97480380D01*
X48117023Y-97480380D01*
%TO.C,H1*%
X47625095Y-82430880D02*
X47625095Y-81430880D01*
X47625095Y-81907071D02*
X48196523Y-81907071D01*
X48196523Y-82430880D02*
X48196523Y-81430880D01*
X49196523Y-82430880D02*
X48625095Y-82430880D01*
X48910809Y-82430880D02*
X48910809Y-81430880D01*
X48815571Y-81573738D01*
X48720333Y-81668976D01*
X48625095Y-81716595D01*
%TD*%
M02*
