%TF.GenerationSoftware,KiCad,Pcbnew,(5.1.10)-1*%
%TF.CreationDate,2021-08-06T13:29:55-07:00*%
%TF.ProjectId,dogbone,646f6762-6f6e-4652-9e6b-696361645f70,rev?*%
%TF.SameCoordinates,Original*%
%TF.FileFunction,Copper,L2,Bot*%
%TF.FilePolarity,Positive*%
%FSLAX46Y46*%
G04 Gerber Fmt 4.6, Leading zero omitted, Abs format (unit mm)*
G04 Created by KiCad (PCBNEW (5.1.10)-1) date 2021-08-06 13:29:55*
%MOMM*%
%LPD*%
G01*
G04 APERTURE LIST*
%TA.AperFunction,SMDPad,CuDef*%
%ADD10R,0.600000X1.550000*%
%TD*%
%TA.AperFunction,SMDPad,CuDef*%
%ADD11R,1.200000X1.800000*%
%TD*%
%TA.AperFunction,SMDPad,CuDef*%
%ADD12R,0.725000X0.900000*%
%TD*%
%TA.AperFunction,ComponentPad*%
%ADD13C,2.500000*%
%TD*%
%TA.AperFunction,ViaPad*%
%ADD14C,0.800000*%
%TD*%
%TA.AperFunction,Conductor*%
%ADD15C,0.250000*%
%TD*%
G04 APERTURE END LIST*
D10*
%TO.P,J1,5*%
%TO.N,Net-(J1-Pad5)*%
X53775600Y-98196400D03*
D11*
%TO.P,J1,6*%
%TO.N,Net-(J1-Pad6)*%
X59375600Y-101796400D03*
X52175600Y-101796400D03*
D10*
%TO.P,J1,4*%
%TO.N,+3V3*%
X54775600Y-98196400D03*
%TO.P,J1,3*%
%TO.N,UNAMP*%
X55775600Y-98196400D03*
%TO.P,J1,2*%
%TO.N,AMP*%
X56775600Y-98196400D03*
%TO.P,J1,1*%
%TO.N,GND*%
X57775600Y-98196400D03*
%TD*%
%TO.P,U1,4*%
%TO.N,UNAMP*%
%TA.AperFunction,SMDPad,CuDef*%
G36*
G01*
X55271500Y-93444000D02*
X55271500Y-93744000D01*
G75*
G02*
X55121500Y-93894000I-150000J0D01*
G01*
X54321500Y-93894000D01*
G75*
G02*
X54171500Y-93744000I0J150000D01*
G01*
X54171500Y-93444000D01*
G75*
G02*
X54321500Y-93294000I150000J0D01*
G01*
X55121500Y-93294000D01*
G75*
G02*
X55271500Y-93444000I0J-150000D01*
G01*
G37*
%TD.AperFunction*%
%TO.P,U1,3*%
%TO.N,VGND*%
%TA.AperFunction,SMDPad,CuDef*%
G36*
G01*
X58271500Y-93444000D02*
X58271500Y-93744000D01*
G75*
G02*
X58121500Y-93894000I-150000J0D01*
G01*
X57321500Y-93894000D01*
G75*
G02*
X57171500Y-93744000I0J150000D01*
G01*
X57171500Y-93444000D01*
G75*
G02*
X57321500Y-93294000I150000J0D01*
G01*
X58121500Y-93294000D01*
G75*
G02*
X58271500Y-93444000I0J-150000D01*
G01*
G37*
%TD.AperFunction*%
%TO.P,U1,2*%
%TO.N,GND*%
%TA.AperFunction,SMDPad,CuDef*%
G36*
G01*
X58271500Y-92494000D02*
X58271500Y-92794000D01*
G75*
G02*
X58121500Y-92944000I-150000J0D01*
G01*
X57321500Y-92944000D01*
G75*
G02*
X57171500Y-92794000I0J150000D01*
G01*
X57171500Y-92494000D01*
G75*
G02*
X57321500Y-92344000I150000J0D01*
G01*
X58121500Y-92344000D01*
G75*
G02*
X58271500Y-92494000I0J-150000D01*
G01*
G37*
%TD.AperFunction*%
%TO.P,U1,5*%
%TO.N,+3V3*%
%TA.AperFunction,SMDPad,CuDef*%
G36*
G01*
X55271500Y-91544000D02*
X55271500Y-91844000D01*
G75*
G02*
X55121500Y-91994000I-150000J0D01*
G01*
X54321500Y-91994000D01*
G75*
G02*
X54171500Y-91844000I0J150000D01*
G01*
X54171500Y-91544000D01*
G75*
G02*
X54321500Y-91394000I150000J0D01*
G01*
X55121500Y-91394000D01*
G75*
G02*
X55271500Y-91544000I0J-150000D01*
G01*
G37*
%TD.AperFunction*%
%TO.P,U1,1*%
%TO.N,AMP*%
%TA.AperFunction,SMDPad,CuDef*%
G36*
G01*
X58271500Y-91544000D02*
X58271500Y-91844000D01*
G75*
G02*
X58121500Y-91994000I-150000J0D01*
G01*
X57321500Y-91994000D01*
G75*
G02*
X57171500Y-91844000I0J150000D01*
G01*
X57171500Y-91544000D01*
G75*
G02*
X57321500Y-91394000I150000J0D01*
G01*
X58121500Y-91394000D01*
G75*
G02*
X58271500Y-91544000I0J-150000D01*
G01*
G37*
%TD.AperFunction*%
%TD*%
D12*
%TO.P,R4,2*%
%TO.N,AMP*%
X57001000Y-90233500D03*
%TO.P,R4,1*%
%TO.N,UNAMP*%
X55626000Y-90233500D03*
%TD*%
%TO.P,C1,2*%
%TO.N,AMP*%
X56959500Y-88455500D03*
%TO.P,C1,1*%
%TO.N,UNAMP*%
X55584500Y-88455500D03*
%TD*%
D13*
%TO.P,H3,1*%
%TO.N,N/C*%
X65577000Y-90623000D03*
%TD*%
%TO.P,H2,1*%
%TO.N,N/C*%
X48634000Y-94760000D03*
%TD*%
%TO.P,H1,1*%
%TO.N,N/C*%
X48634000Y-84740000D03*
%TD*%
D14*
%TO.N,VGND*%
X57150000Y-94615000D03*
%TO.N,UNAMP*%
X54737000Y-88582500D03*
%TO.N,+3V3*%
X52273200Y-97485200D03*
%TO.N,GND*%
X58596510Y-95073490D03*
%TD*%
D15*
%TO.N,VGND*%
X57150000Y-94165500D02*
X57721500Y-93594000D01*
X57150000Y-94615000D02*
X57150000Y-94165500D01*
%TO.N,UNAMP*%
X55584500Y-90192000D02*
X55626000Y-90233500D01*
X55584500Y-88455500D02*
X55584500Y-90192000D01*
X55626000Y-92689500D02*
X54721500Y-93594000D01*
X55626000Y-90233500D02*
X55626000Y-92689500D01*
X55737500Y-94610000D02*
X54721500Y-93594000D01*
X55737500Y-98158300D02*
X55775600Y-98196400D01*
X55737500Y-94610000D02*
X55737500Y-98158300D01*
X54737000Y-88582500D02*
X54737000Y-89344500D01*
X54737000Y-89344500D02*
X55626000Y-90233500D01*
%TO.N,AMP*%
X56959500Y-90192000D02*
X57001000Y-90233500D01*
X56959500Y-88455500D02*
X56959500Y-90192000D01*
X57001000Y-90973500D02*
X57721500Y-91694000D01*
X57001000Y-90233500D02*
X57001000Y-90973500D01*
X56424999Y-92718733D02*
X57449732Y-91694000D01*
X57449732Y-91694000D02*
X57721500Y-91694000D01*
X56424999Y-94963001D02*
X56424999Y-92718733D01*
X56737500Y-95275502D02*
X56424999Y-94963001D01*
X56737500Y-98158300D02*
X56775600Y-98196400D01*
X56737500Y-95275502D02*
X56737500Y-98158300D01*
%TO.N,+3V3*%
X53721000Y-92694500D02*
X54721500Y-91694000D01*
X53721000Y-93815268D02*
X53721000Y-92694500D01*
X54775600Y-94869868D02*
X53721000Y-93815268D01*
X54775600Y-96862400D02*
X53099200Y-96862400D01*
X54775600Y-98196400D02*
X54775600Y-96862400D01*
X54775600Y-96862400D02*
X54775600Y-94869868D01*
X53099200Y-96862400D02*
X52896000Y-96862400D01*
X52896000Y-96862400D02*
X52273200Y-97485200D01*
X52273200Y-97485200D02*
X52273200Y-97485200D01*
%TO.N,GND*%
X58271500Y-92644000D02*
X57721500Y-92644000D01*
X58596510Y-92969010D02*
X58271500Y-92644000D01*
X58596510Y-97375490D02*
X57775600Y-98196400D01*
X58596510Y-92969010D02*
X58596510Y-95073490D01*
X58596510Y-95873590D02*
X58596510Y-97375490D01*
X58596510Y-95073490D02*
X58596510Y-95873590D01*
%TD*%
M02*
